G04 DipTrace 5.1.0.2*
G04 BottomMask.gbr*
%MOIN*%
G04 #@! TF.FileFunction,Soldermask,Bot*
G04 #@! TF.Part,Single*
%ADD22C,0.025591*%
%ADD36C,0.098425*%
%ADD47C,0.125984*%
%ADD48C,0.070866*%
%ADD54C,0.050787*%
%ADD56R,0.050787X0.050787*%
%ADD69C,0.102362*%
%ADD70O,0.082677X0.043307*%
%ADD74O,0.086614X0.045276*%
%ADD78C,0.062992*%
%ADD80R,0.062992X0.062992*%
%FSLAX26Y26*%
G04*
G70*
G90*
G75*
G01*
G04 BotMask*
%LPD*%
D80*
X2406201Y493701D3*
D78*
X2506201D3*
D80*
X815453Y518701D3*
D78*
X715453D3*
D80*
X1065453D3*
D78*
X965453D3*
D80*
X1315453D3*
D78*
X1215453D3*
D80*
X1565453D3*
D78*
X1465453D3*
D80*
X1815453D3*
D78*
X1715453D3*
D80*
X2065453D3*
D78*
X1965453D3*
D47*
X511811Y511811D3*
X3031496D3*
Y1850394D3*
D74*
X658262Y1901282D3*
D70*
X493695Y1901278D3*
X493703Y1561121D3*
D74*
X658270Y1561125D3*
D22*
X638584Y1617424D3*
X638578Y1844983D3*
D69*
X1768701Y1818701D3*
X1918701D3*
D36*
X742126Y1366535D3*
Y874409D3*
X545276Y1366535D3*
Y874409D3*
D48*
X820866Y1120472D3*
X466535D3*
D36*
X1329626Y1366535D3*
Y874409D3*
X1132776Y1366535D3*
Y874409D3*
D48*
X1408366Y1120472D3*
X1054035D3*
D36*
X1917126Y1366535D3*
Y874409D3*
X1720276Y1366535D3*
Y874409D3*
D48*
X1995866Y1120472D3*
X1641535D3*
D56*
X2814072Y843702D3*
D54*
X2814078Y643702D3*
X2814075Y743702D3*
M02*
