G04 DipTrace 5.1.0.2*
G04 BottomSilk.gbr*
%MOIN*%
G04 #@! TF.FileFunction,Legend,Bot*
G04 #@! TF.Part,Single*
%ADD83C,0.00772*%
%ADD87C,0.020071*%
%ADD88C,0.012351*%
%FSLAX26Y26*%
G04*
G70*
G90*
G75*
G01*
G04 BotSilk*
%LPD*%
G36*
X2401664Y1293701D2*
X2398828Y1292830D1*
X2397694Y1291959D1*
X2392023Y1286734D1*
X2390322Y1284993D1*
X2378980Y1274543D1*
X2377278Y1272801D1*
X2363101Y1259739D1*
X2361399Y1257997D1*
X2347222Y1244934D1*
X2345520Y1243193D1*
X2331343Y1230130D1*
X2329641Y1228389D1*
X2315464Y1215326D1*
X2313762Y1213585D1*
X2302420Y1203135D1*
X2300719Y1201393D1*
X2286541Y1188331D1*
X2284840Y1186589D1*
X2270662Y1173527D1*
X2268961Y1171785D1*
X2254783Y1158723D1*
X2253082Y1156981D1*
X2241740Y1146531D1*
X2240038Y1144789D1*
X2225861Y1131727D1*
X2224159Y1129985D1*
X2209982Y1116923D1*
X2208280Y1115181D1*
X2194102Y1102119D1*
X2192401Y1100377D1*
X2178223Y1087315D1*
X2176522Y1085573D1*
X2165180Y1075123D1*
X2163479Y1073381D1*
X2149301Y1060319D1*
X2147600Y1058577D1*
X2133422Y1045515D1*
X2131721Y1043773D1*
X2117543Y1030711D1*
X2115842Y1028969D1*
X2113006Y1026357D1*
X2109603Y1022874D1*
X2107902Y1020261D1*
X2106768Y1016778D1*
X2106201Y1013294D1*
Y1009811D1*
X2106768Y1007199D1*
X2107902Y1003715D1*
X2110738Y999361D1*
X2111872Y998490D1*
X2113573Y997620D1*
X2117543D1*
X2119244Y998490D1*
X2121513Y1000232D1*
X2130019Y1008069D1*
X2131721Y1009811D1*
X2145898Y1022874D1*
X2147600Y1024615D1*
X2158942Y1035065D1*
X2160643Y1036807D1*
X2174821Y1049869D1*
X2176522Y1051611D1*
X2190700Y1064673D1*
X2192401Y1066415D1*
X2206579Y1079477D1*
X2208280Y1081219D1*
X2219622Y1091669D1*
X2221324Y1093411D1*
X2235501Y1106473D1*
X2237203Y1108215D1*
X2251380Y1121277D1*
X2253082Y1123019D1*
X2267259Y1136081D1*
X2268961Y1137823D1*
X2283138Y1150885D1*
X2284840Y1152627D1*
X2296182Y1163077D1*
X2297883Y1164818D1*
X2312061Y1177881D1*
X2313762Y1179622D1*
X2327940Y1192685D1*
X2329641Y1194426D1*
X2343819Y1207489D1*
X2345520Y1209231D1*
X2356862Y1219680D1*
X2358564Y1221422D1*
X2372741Y1234485D1*
X2374443Y1236226D1*
X2388620Y1249289D1*
X2390322Y1251030D1*
X2401664Y1261480D1*
X2402087Y1262039D1*
X2402381Y1261989D1*
X2402798Y1261480D1*
X2411305Y1253643D1*
X2415275Y1250159D1*
X2423781Y1242322D1*
X2427751Y1238839D1*
X2436257Y1231001D1*
X2440227Y1227518D1*
X2448734Y1219680D1*
X2452704Y1216197D1*
X2461210Y1208360D1*
X2465180Y1204876D1*
X2473687Y1197039D1*
X2477656Y1193556D1*
X2486163Y1185718D1*
X2490133Y1182235D1*
X2498639Y1174397D1*
X2502609Y1170914D1*
X2511116Y1163077D1*
X2515085Y1159593D1*
X2523592Y1151756D1*
X2527562Y1148273D1*
X2536068Y1140435D1*
X2540038Y1136952D1*
X2548545Y1129114D1*
X2552515Y1125631D1*
X2561021Y1117794D1*
X2564991Y1114310D1*
X2573498Y1106473D1*
X2577467Y1102990D1*
X2585974Y1095152D1*
X2589944Y1091669D1*
X2598450Y1083831D1*
X2602420Y1080348D1*
X2610927Y1072511D1*
X2614896Y1069027D1*
X2623403Y1061190D1*
X2627373Y1057707D1*
X2635879Y1049869D1*
X2639849Y1046386D1*
X2648356Y1038548D1*
X2652326Y1035065D1*
X2660832Y1027228D1*
X2664802Y1023744D1*
X2670473Y1018519D1*
X2674443Y1015036D1*
X2682949Y1007199D1*
X2686919Y1003715D1*
X2689755Y1001103D1*
X2693157Y998490D1*
X2694859Y997620D1*
X2698828D1*
X2700530Y998490D1*
X2701664Y999361D1*
X2704499Y1003715D1*
X2705634Y1007199D1*
X2706201Y1010682D1*
Y1012424D1*
X2705634Y1016778D1*
X2705067Y1018519D1*
X2703365Y1022003D1*
X2702798Y1022874D1*
X2701097Y1024615D1*
X2692590Y1032453D1*
X2688620Y1035936D1*
X2680114Y1043773D1*
X2676144Y1047257D1*
X2667637Y1055094D1*
X2663668Y1058577D1*
X2655161Y1066415D1*
X2651191Y1069898D1*
X2642685Y1077736D1*
X2638715Y1081219D1*
X2630208Y1089056D1*
X2626239Y1092540D1*
X2617732Y1100377D1*
X2613762Y1103860D1*
X2605256Y1111698D1*
X2601286Y1115181D1*
X2592779Y1123019D1*
X2588809Y1126502D1*
X2580303Y1134339D1*
X2576333Y1137823D1*
X2567826Y1145660D1*
X2563857Y1149143D1*
X2555350Y1156981D1*
X2551380Y1160464D1*
X2542874Y1168302D1*
X2538904Y1171785D1*
X2530397Y1179622D1*
X2526428Y1183106D1*
X2517921Y1190943D1*
X2513951Y1194426D1*
X2505445Y1202264D1*
X2501475Y1205747D1*
X2492968Y1213585D1*
X2488999Y1217068D1*
X2480492Y1224905D1*
X2476522Y1228389D1*
X2468016Y1236226D1*
X2464046Y1239709D1*
X2455539Y1247547D1*
X2451569Y1251030D1*
X2443063Y1258868D1*
X2439093Y1262351D1*
X2430586Y1270188D1*
X2426617Y1273672D1*
X2418110Y1281509D1*
X2414140Y1284993D1*
X2408469Y1290217D1*
X2405067Y1292830D1*
X2402231Y1293701D1*
X2401664D1*
G37*
G36*
X2605823Y903570D2*
X2605256Y904441D1*
X2601286Y907053D1*
X2599017Y908795D1*
X2595615Y910537D1*
X2593346Y911408D1*
X2589944Y913149D1*
X2585974Y914891D1*
X2584840D1*
X2584148Y913982D1*
X2583706Y914020D1*
X2582571Y915762D1*
X2575766Y917503D1*
X2566125Y919245D1*
X2554216D1*
X2543441Y917503D1*
X2537203Y915762D1*
X2535501Y914891D1*
X2534810Y913982D1*
X2534367Y914020D1*
X2533233Y915762D1*
X2533800Y916633D1*
X2534367Y919245D1*
X2535501Y921858D1*
Y925341D1*
X2536636Y927083D1*
X2537770Y927953D1*
X2541740Y928824D1*
X2551380Y931437D1*
X2558753Y933178D1*
X2571229Y934920D1*
X2572930Y935791D1*
X2573354Y936350D1*
X2573648Y936299D1*
X2574065Y935791D1*
X2588809Y934920D1*
X2600152Y934049D1*
X2600719Y933178D1*
X2608658Y931437D1*
X2609792D1*
X2610400Y931957D1*
X2610892Y931901D1*
X2611494Y931437D1*
X2613762Y930566D1*
X2618866Y928824D1*
X2619433D1*
Y930566D1*
X2616598Y933178D1*
X2615464Y934920D1*
X2613762Y935791D1*
X2611494Y937532D1*
X2610927Y938403D1*
X2609225Y940145D1*
X2606390Y941887D1*
X2604121Y943628D1*
X2602420Y944499D1*
X2599585Y946241D1*
X2596182Y947982D1*
X2588809Y950595D1*
X2583138Y952336D1*
X2559887D1*
X2553649Y950595D1*
X2549112Y948853D1*
X2546276Y947982D1*
X2541740Y946241D1*
X2540605Y944499D1*
X2539774Y944587D1*
X2539471Y945370D1*
Y947982D1*
X2540038Y948853D1*
Y981074D1*
X2539471Y988911D1*
X2537203Y1001103D1*
X2536636Y1004586D1*
X2535501Y1008069D1*
X2534367Y1012424D1*
X2533800Y1013294D1*
Y1015036D1*
X2534367Y1015907D1*
X2535501Y1018519D1*
X2537203Y1022874D1*
X2537770Y1025486D1*
X2538337Y1027228D1*
X2539471Y1029840D1*
X2540038Y1031582D1*
X2540605Y1034194D1*
X2542307Y1039419D1*
X2542874Y1042032D1*
X2544008Y1044644D1*
X2545709Y1052482D1*
X2547978Y1061190D1*
X2548545Y1064673D1*
X2549679Y1069898D1*
X2550813Y1076865D1*
X2551380Y1083831D1*
Y1101248D1*
X2550813Y1104731D1*
X2547411Y1109956D1*
X2542874Y1112569D1*
X2529830D1*
X2528129Y1111698D1*
X2527184Y1110827D1*
X2526239D1*
X2525293Y1111698D1*
X2520189Y1109956D1*
X2516220Y1108215D1*
X2509414Y1105602D1*
X2506579Y1103860D1*
X2504310Y1102990D1*
X2501475Y1101248D1*
X2497505Y1098635D1*
X2494670Y1096894D1*
X2490700Y1094281D1*
X2487864Y1092540D1*
X2487297Y1091669D1*
X2486163Y1090798D1*
X2485029D1*
X2483895Y1091669D1*
X2483327Y1092540D1*
X2471985Y1101248D1*
X2469150Y1102990D1*
X2468548Y1102044D1*
X2468255Y1102185D1*
X2468016Y1102990D1*
X2464613Y1105602D1*
X2461210Y1107344D1*
X2458942Y1108215D1*
X2457240Y1109085D1*
X2456106Y1109956D1*
X2452704Y1111698D1*
X2450435Y1112569D1*
X2446465Y1114310D1*
X2432288Y1118665D1*
X2424915Y1119535D1*
X2413573Y1120406D1*
X2397127D1*
X2385218Y1119535D1*
X2378413Y1118665D1*
X2372741Y1116923D1*
X2371607Y1115181D1*
X2370776Y1115270D1*
X2370473Y1116052D1*
X2369339D1*
X2364235Y1114310D1*
X2360265Y1112569D1*
X2359097Y1110752D1*
X2358803Y1110894D1*
X2358564Y1111698D1*
X2357997D1*
X2354027Y1109956D1*
X2351191Y1108215D1*
X2350023Y1106398D1*
X2349729Y1106539D1*
X2349490Y1107344D1*
X2348923D1*
X2345520Y1105602D1*
X2341551Y1102990D1*
X2335879Y1099506D1*
X2326806Y1092540D1*
X2326239Y1091669D1*
X2325104Y1090798D1*
X2323970D1*
X2322836Y1091669D1*
X2322269Y1092540D1*
X2318299Y1095152D1*
X2315464Y1096894D1*
X2313195Y1098635D1*
X2306390Y1102119D1*
X2305823Y1102990D1*
X2303554Y1103860D1*
X2296749Y1107344D1*
X2293913Y1108215D1*
X2289944Y1109956D1*
X2284840Y1111698D1*
X2280303Y1112569D1*
X2267259D1*
X2264991Y1111698D1*
X2263857Y1110827D1*
X2263713Y1109800D1*
X2263257Y1109005D1*
X2262963Y1109152D1*
X2262723Y1109956D1*
X2259320Y1104731D1*
X2258186Y1099506D1*
Y1085573D1*
X2259320Y1083831D1*
Y1076865D1*
X2260454Y1070769D1*
X2261021Y1066415D1*
X2263290Y1055965D1*
X2263857Y1054223D1*
X2264991Y1048998D1*
X2266125Y1046386D1*
X2266692Y1042903D1*
X2268961Y1035936D1*
X2269528Y1033323D1*
X2270662Y1030711D1*
X2275199Y1016778D1*
X2276333Y1015036D1*
Y1010682D1*
X2275199Y1008940D1*
X2274632Y1005457D1*
X2273498Y1002844D1*
X2355728D1*
X2357051Y1003715D1*
X2358375D1*
X2359698Y1002844D1*
X2366503Y1001103D1*
X2371040Y999361D1*
X2371607Y998490D1*
X2376144Y995007D1*
X2376711Y994136D1*
X2377845Y993265D1*
X2383516Y984557D1*
Y983686D1*
X2384651Y981074D1*
X2386919Y977590D1*
Y975849D1*
X2387486Y973236D1*
X2388620Y969753D1*
X2389188Y964528D1*
X2390322Y962786D1*
Y942757D1*
X2389188Y941016D1*
X2388620Y937532D1*
X2387486Y933178D1*
X2386919Y930566D1*
X2384651Y925341D1*
Y923599D1*
X2384084Y922728D1*
X2382949Y921858D1*
X2380681Y917503D1*
X2378413Y914020D1*
X2377278Y913149D1*
X2375577Y911408D1*
X2372741Y908795D1*
X2369906Y907053D1*
X2368205Y906183D1*
X2363101Y904441D1*
Y903570D1*
X2359698Y902699D1*
X2356295D1*
X2352893Y903570D1*
X2352326Y904441D1*
X2347222Y906183D1*
X2343819Y907924D1*
X2343252Y908795D1*
X2342118Y909666D1*
X2340416Y911408D1*
X2338715Y912278D1*
X2330775Y924470D1*
Y926212D1*
X2330208Y927083D1*
X2329074Y929695D1*
X2327940Y933178D1*
X2327373Y936662D1*
X2326239Y942757D1*
X2325104Y944499D1*
Y962786D1*
X2326239Y963657D1*
Y968882D1*
X2327373Y969753D1*
X2327940Y973236D1*
X2328791Y975849D1*
X2329100Y976642D1*
X2329647Y977572D1*
X2330208Y978461D1*
X2331910Y982815D1*
Y984557D1*
X2337014Y992395D1*
X2339282Y994136D1*
X2342118Y996749D1*
X2343819Y998490D1*
X2344386Y999361D1*
X2346087Y1000232D1*
X2349490Y1001103D1*
X2355728Y1002844D1*
X2273498D1*
X2272363Y996749D1*
X2271796Y992395D1*
Y986299D1*
X2270662Y984557D1*
Y974107D1*
X2269528Y972366D1*
Y958432D1*
X2270662Y956691D1*
Y946241D1*
X2270061Y945295D1*
X2269767Y945436D1*
X2269528Y946241D1*
X2267259Y947982D1*
X2263290Y948853D1*
X2259887Y949724D1*
X2259320Y950595D1*
X2253082Y952336D1*
X2230397D1*
X2224159Y950595D1*
X2219622Y948853D1*
X2216220Y947982D1*
X2212817Y945370D1*
X2210549Y944499D1*
X2208847Y943628D1*
X2204310Y940145D1*
X2202042Y939274D1*
X2199774Y936662D1*
X2197505Y934920D1*
X2194102Y931437D1*
X2193535Y930566D1*
Y928824D1*
X2194102D1*
X2199206Y930566D1*
X2199774Y931437D1*
X2200197Y931996D1*
X2200491Y931945D1*
X2200908Y931437D1*
X2204310D1*
X2211683Y933178D1*
X2224159Y934920D1*
X2230208Y935791D1*
X2236257D1*
X2242307Y934920D1*
X2253649Y933178D1*
X2261021Y931437D1*
X2266125Y930566D1*
X2270662Y929695D1*
X2271229Y928824D1*
X2274065Y927953D1*
X2274632Y927083D1*
Y924470D1*
X2275199Y921858D1*
X2275766Y920116D1*
X2276333Y917503D1*
X2276762Y916332D1*
X2276690Y915536D1*
X2276094Y914822D1*
X2275576Y914960D1*
X2275199Y915762D1*
X2269528Y917503D1*
X2258753Y919245D1*
X2246276D1*
X2236636Y917503D1*
X2230964Y915762D1*
X2228696Y914891D1*
X2228005Y913982D1*
X2227349Y914095D1*
X2226995Y914891D1*
X2219055Y911408D1*
X2216787Y910537D1*
X2213951Y908795D1*
X2209982Y906183D1*
X2207146Y904441D1*
X2201475Y900087D1*
X2200341Y898345D1*
X2198072Y896604D1*
X2196371Y895733D1*
X2194102Y893120D1*
X2190133Y888766D1*
X2183895Y880929D1*
X2182760Y879187D1*
X2182193Y877445D1*
X2180492Y875704D1*
X2179925Y874833D1*
Y871350D1*
X2181626Y872220D1*
X2187297Y876575D1*
X2190133Y878316D1*
X2194102Y880929D1*
X2196938Y882670D1*
X2197505Y883541D1*
X2199206Y884412D1*
X2201475Y885283D1*
X2204310Y887024D1*
X2204878Y887895D1*
X2207146Y888766D1*
X2209982Y889637D1*
X2213384Y891379D1*
X2217921Y893120D1*
X2220757Y893991D1*
X2225293Y895733D1*
X2225861Y896604D1*
X2230397Y897474D1*
X2235501Y898345D1*
X2243441Y900087D1*
X2256484Y901829D1*
X2262534Y902699D1*
X2268583D1*
X2274632Y901829D1*
X2281437Y900958D1*
X2283706Y897474D1*
Y895733D1*
X2284840Y894862D1*
X2397694D1*
X2402798Y895733D1*
X2407902D1*
X2413006Y894862D1*
X2413573Y893991D1*
X2416976Y893120D1*
X2419244Y892249D1*
X2422647Y887024D1*
Y885283D1*
X2421513Y883541D1*
Y881799D1*
X2419811Y879187D1*
X2418677Y878316D1*
X2416409Y875704D1*
X2413573Y873962D1*
X2413006Y873091D1*
X2410171Y872220D1*
X2406957Y871350D1*
X2403743D1*
X2400530Y872220D1*
X2396560Y873962D1*
X2394859Y874833D1*
X2394292Y875704D1*
X2392023Y878316D1*
X2390889Y879187D1*
X2389188Y881799D1*
Y882670D1*
X2388620Y883541D1*
Y889637D1*
X2389188Y890508D1*
X2390889Y891379D1*
X2391456Y892249D1*
X2393157Y893120D1*
X2397127Y893991D1*
X2397694Y894862D1*
X2284840D1*
X2285974Y891379D1*
X2288809Y887024D1*
Y886154D1*
X2283706Y885283D1*
X2274632Y884412D1*
X2268394Y882670D1*
X2263290Y880929D1*
X2259887Y880058D1*
X2256484Y878316D1*
X2255350Y877445D1*
X2253082Y876575D1*
X2250246Y875704D1*
X2247411Y873962D1*
X2243441Y871350D1*
X2240605Y869608D1*
X2234934Y865254D1*
X2234367Y864383D1*
X2233233Y863512D1*
X2231532Y862641D1*
X2227562Y858287D1*
X2222458Y853062D1*
X2212250Y837387D1*
X2210549Y833033D1*
X2209414Y830421D1*
X2208280Y826937D1*
X2207713Y824325D1*
X2206579Y821712D1*
X2205445Y816487D1*
Y814746D1*
X2206579D1*
X2206689Y815363D1*
X2207146Y816487D1*
X2208847Y817358D1*
X2213951Y823454D1*
X2216787Y827808D1*
X2217921Y828679D1*
X2219622Y830421D1*
X2221891Y833033D1*
X2225293Y836516D1*
X2228129Y839129D1*
X2230397Y841741D1*
X2232666Y843483D1*
X2235501Y846096D1*
X2237203Y847837D1*
X2239471Y849579D1*
X2240038Y850450D1*
X2241172Y851321D1*
X2242874Y852191D1*
X2243441Y853062D1*
X2245142Y853933D1*
X2247411Y854804D1*
X2249679Y856545D1*
X2250246Y857416D1*
X2251947Y858287D1*
X2254216Y859158D1*
X2254333Y859749D1*
X2254847Y860469D1*
X2255309Y860427D1*
X2255793Y859701D1*
X2255917Y859158D1*
X2254783Y857416D1*
X2253649Y856545D1*
Y855675D1*
X2251947Y853062D1*
X2247978Y852191D1*
X2242874Y849579D1*
X2240605Y847837D1*
X2240038Y846966D1*
X2238904Y846096D1*
X2237203Y845225D1*
X2234934Y843483D1*
X2229830Y836516D1*
X2229263Y835646D1*
X2226428Y830421D1*
X2224726Y826067D1*
X2223592Y823454D1*
X2222458Y819971D1*
X2221324Y814746D1*
X2221781Y813621D1*
X2221891Y813004D1*
X2220757Y811262D1*
Y789492D1*
X2221040Y788621D1*
X2221281Y787667D1*
X2221316Y786867D1*
X2221324Y785138D1*
X2222458Y780784D1*
X2225293Y772075D1*
X2227562Y767721D1*
X2228129Y765979D1*
X2231532Y760754D1*
X2235501Y756400D1*
X2237770Y753788D1*
X2240038Y752046D1*
X2241740Y751175D1*
X2244575Y749434D1*
X2248545Y747692D1*
X2253649Y746821D1*
X2259887D1*
X2261210Y747692D1*
X2262534D1*
X2263857Y746821D1*
Y745950D1*
X2265558Y743338D1*
X2268394Y740725D1*
X2270095Y738984D1*
X2274065Y736371D1*
X2276900Y734630D1*
X2283706Y732017D1*
X2291078D1*
X2296182Y733759D1*
X2298450Y734630D1*
X2300719Y736371D1*
X2304689Y738984D1*
X2306390Y740725D1*
X2307524Y742467D1*
X2309792Y745080D1*
X2312061Y748563D1*
X2312171Y749180D1*
X2312628Y750305D1*
X2318299Y751175D1*
X2322836Y752046D1*
X2326806Y753788D1*
X2329641Y755530D1*
X2331343Y756400D1*
X2334178Y758142D1*
X2337014Y760754D1*
X2340416Y764238D1*
X2347222Y774688D1*
X2348923Y779042D1*
X2350057Y783396D1*
X2350624Y785138D1*
X2351758Y789492D1*
X2352893Y795588D1*
Y811262D1*
X2351758Y818229D1*
X2350624Y819971D1*
Y822583D1*
X2351048Y823142D1*
X2351342Y823092D1*
X2351752Y822557D1*
X2352326Y821712D1*
X2355161Y819971D1*
X2358564Y819100D1*
X2361399Y818229D1*
X2361966Y817358D1*
X2366503Y815617D1*
X2367070D1*
X2367826Y816487D1*
X2368583D1*
X2369339Y815617D1*
X2369906Y814746D1*
X2375010Y813004D1*
X2381815Y811262D1*
X2384084D1*
X2384691Y811782D1*
X2385183Y811727D1*
X2385785Y811262D1*
X2386352D1*
X2386958Y811844D1*
X2387486Y812133D1*
X2388620Y810392D1*
X2421513D1*
X2430019Y812133D1*
X2435123Y813004D1*
X2440227Y814746D1*
X2444197Y815617D1*
X2448734Y817358D1*
X2452137Y819100D1*
X2454405Y819971D1*
X2458375Y821712D1*
X2461210Y823454D1*
X2461817Y823974D1*
X2462300Y823876D1*
X2462787Y823129D1*
X2462912Y822583D1*
X2461777Y820842D1*
X2461210Y817358D1*
X2460076Y811262D1*
Y796458D1*
X2461210Y790363D1*
X2461777Y787750D1*
Y786008D1*
X2462912Y783396D1*
X2464613Y778171D1*
X2465747Y775559D1*
X2466314Y773817D1*
X2472552Y764238D1*
X2475955Y760754D1*
X2482760Y755530D1*
X2486163Y753788D1*
X2490133Y752046D1*
X2494670Y751175D1*
X2500908Y750305D1*
Y748563D1*
X2501475Y746821D1*
X2506579Y740725D1*
X2514518Y734630D1*
X2521324Y732017D1*
X2528696D1*
X2534367Y733759D1*
X2536636Y734630D1*
X2544575Y740725D1*
X2546844Y743338D1*
X2548545Y745080D1*
X2549679Y746821D1*
X2551002Y747692D1*
X2552326D1*
X2553649Y746821D1*
X2559320D1*
X2563857Y747692D1*
X2568394Y749434D1*
X2570662Y751175D1*
X2572363Y752046D1*
X2574632Y753788D1*
X2577467Y756400D1*
X2580870Y759884D1*
X2582571Y762496D1*
X2582682Y763113D1*
X2583138Y764238D1*
X2584273Y765109D1*
X2585407Y766850D1*
X2587108Y771204D1*
X2587675Y772946D1*
X2589377Y776429D1*
X2589944Y779042D1*
X2592212Y787750D1*
X2592779Y797329D1*
Y802554D1*
X2592212Y811262D1*
X2591078Y817358D1*
X2589944Y819971D1*
X2589377Y822583D1*
X2588242Y826067D1*
X2587108Y828679D1*
X2585407Y832162D1*
X2584273Y833033D1*
X2583706Y833904D1*
Y835646D1*
X2581437Y839129D1*
X2577467Y843483D1*
X2575766Y845225D1*
X2572930Y847837D1*
X2570662Y849579D1*
X2565558Y852191D1*
X2561021Y853062D1*
X2557051Y859158D1*
X2557144Y859831D1*
X2557492Y860545D1*
X2557771Y860525D1*
X2558179Y860001D1*
X2558753Y859158D1*
X2561021Y858287D1*
X2562723Y857416D1*
X2563290Y856545D1*
X2564991Y854804D1*
X2569528Y852191D1*
X2571796Y850450D1*
X2575766Y847837D1*
X2576900Y846966D1*
X2577467Y846096D1*
X2583138Y840871D1*
X2584840Y839129D1*
X2587675Y836516D1*
X2591078Y833033D1*
X2593913Y829550D1*
X2597883Y825196D1*
X2599585Y823454D1*
X2606390Y814746D1*
X2606957D1*
X2607524Y815617D1*
X2606957Y817358D1*
X2606390Y821712D1*
X2605256Y824325D1*
X2604121Y827808D1*
X2603554Y830421D1*
X2602420Y833033D1*
X2600152Y837387D1*
X2599585Y839129D1*
X2591078Y852191D1*
X2587108Y856545D1*
X2585407Y858287D1*
X2581437Y862641D1*
X2577467Y865254D1*
X2576333Y866125D1*
X2575766Y866995D1*
X2571796Y869608D1*
X2570662Y870479D1*
X2570095Y871350D1*
X2564991Y873962D1*
X2562155Y875704D1*
X2557051Y878316D1*
X2553082Y880058D1*
X2544575Y882670D1*
X2538337Y884412D1*
X2529263Y885283D1*
X2521324Y886154D1*
X2523025Y888766D1*
X2525861Y893991D1*
X2527562Y899216D1*
X2527672Y899833D1*
X2528129Y900958D1*
X2538904Y901829D1*
X2544764Y902699D1*
X2550624D1*
X2556484Y901829D1*
X2569528Y900087D1*
X2577467Y898345D1*
X2582004Y897474D1*
X2587675Y895733D1*
X2591645Y893991D1*
X2599017Y891379D1*
X2602987Y889637D1*
X2605256Y888766D1*
X2608658Y887024D1*
X2611494Y885283D1*
X2613762Y884412D1*
X2615464Y883541D1*
X2616031Y882670D1*
X2618866Y880929D1*
X2623403Y878316D1*
X2625671Y876575D1*
X2627373Y875704D1*
X2628507Y874833D1*
X2629074Y873962D1*
X2631343Y872220D1*
X2633044Y871350D1*
X2633611D1*
Y872220D1*
X2630775Y876575D1*
Y877445D1*
X2629074Y880058D1*
X2623403Y887895D1*
X2618866Y893120D1*
X2616031Y895733D1*
X2614329Y897474D1*
X2611494Y900087D1*
X2607524Y902699D1*
X2605823Y903570D1*
X2457808D1*
X2454216Y902699D1*
X2450624D1*
X2447033Y903570D1*
X2446465Y904441D1*
X2442496Y906183D1*
X2440227Y907053D1*
X2438526Y907924D1*
X2437959Y908795D1*
X2434556Y911408D1*
X2432855Y914020D1*
X2430586Y915762D1*
X2427184Y920987D1*
Y921858D1*
X2424915Y927083D1*
X2423214Y931437D1*
X2422647Y934920D1*
X2421513Y940145D1*
X2420378Y941887D1*
Y947982D1*
X2419811Y948853D1*
Y957561D1*
X2420378Y958432D1*
Y965399D1*
X2421513Y967141D1*
X2422647Y971495D1*
X2423214Y974107D1*
X2424348Y977590D1*
X2425482Y980203D1*
X2426050Y981945D1*
X2430019Y988911D1*
X2433989Y995007D1*
X2435690Y995878D1*
X2439093Y998490D1*
X2439660Y999361D1*
X2441361Y1000232D1*
X2443630Y1001103D1*
X2451002Y1002844D1*
X2452326Y1003715D1*
X2453649D1*
X2454972Y1002844D1*
X2461210Y1001103D1*
X2464046Y1000232D1*
X2465747Y999361D1*
X2466314Y998490D1*
X2468016Y996749D1*
X2472552Y993265D1*
Y992395D1*
X2474254Y990653D1*
X2475388Y989782D1*
X2475845Y988658D1*
X2475955Y988040D1*
X2478223Y983686D1*
X2479358Y982815D1*
X2479925Y981945D1*
Y980203D1*
X2481626Y975849D1*
X2483895Y967141D1*
X2484462Y964528D1*
Y961045D1*
X2485029Y959303D1*
X2485596Y958432D1*
Y947112D1*
X2485029Y946241D1*
X2484462Y944499D1*
X2483895Y939274D1*
X2482760Y934049D1*
X2481626Y931437D1*
X2481059Y928824D1*
X2480492Y927083D1*
X2478223Y922728D1*
Y920987D1*
X2477089Y919245D1*
X2475955Y918374D1*
X2475769Y917318D1*
X2475388Y916633D1*
X2474254Y915762D1*
X2471985Y913149D1*
X2470851Y911408D1*
X2468583Y909666D1*
X2466881Y908795D1*
Y907924D1*
X2465180Y907053D1*
X2458375Y904441D1*
X2457808Y903570D1*
X2605823D1*
G37*
G36*
X2357430Y961916D2*
X2357243Y960859D1*
X2356862Y960174D1*
X2355728Y959303D1*
X2354594Y954949D1*
Y949724D1*
X2353460Y948853D1*
Y927953D1*
X2354027Y926212D1*
X2354594Y920987D1*
X2355161Y919245D1*
X2355728Y915762D1*
X2357430Y913149D1*
X2357997D1*
X2360265Y916633D1*
X2361399Y921858D1*
Y923599D1*
X2361966Y926212D1*
Y948853D1*
X2361399Y951466D1*
Y954078D1*
X2360265Y959303D1*
X2357997Y961916D1*
X2357430D1*
G37*
G36*
X2451569D2*
X2451383Y960859D1*
X2451002Y960174D1*
X2449868Y957561D1*
X2448734Y951466D1*
X2448167Y940145D1*
Y935791D1*
X2448734Y923599D1*
X2449868Y917503D1*
X2451002Y914891D1*
X2452137Y913149D1*
X2453271D1*
X2454405Y915762D1*
X2455539Y917503D1*
X2456106Y921858D1*
X2456673Y929695D1*
X2457240Y932307D1*
Y941887D1*
X2456673Y943628D1*
X2456106Y953207D1*
X2455539Y957561D1*
X2454405Y960174D1*
X2453271Y961916D1*
X2451569D1*
G37*
G36*
X2168016Y721567D2*
X2165747Y719826D1*
X2164046Y718084D1*
X2163479Y717213D1*
X2162344Y714601D1*
X2161777Y712859D1*
X2161210Y710247D1*
Y705022D1*
X2161777Y702409D1*
X2162912Y698926D1*
X2165180Y695442D1*
X2166314Y694572D1*
X2168016Y693701D1*
X2655161D1*
X2657430Y695442D1*
X2659131Y697184D1*
X2659698Y698055D1*
X2660832Y700667D1*
X2661399Y703280D1*
X2661966Y706763D1*
Y708505D1*
X2661399Y711988D1*
X2660265Y715471D1*
X2657430Y719826D1*
X2656295Y720696D1*
X2654594Y721567D1*
X2168016D1*
G37*
X1843555Y1939187D2*
D83*
X1867431D1*
X1869808Y1917687D1*
X1867431Y1920064D1*
X1860246Y1922495D1*
X1853116D1*
X1845931Y1920064D1*
X1841123Y1915310D1*
X1838746Y1908125D1*
Y1903372D1*
X1841123Y1896187D1*
X1845931Y1891379D1*
X1853116Y1889002D1*
X1860246D1*
X1867431Y1891379D1*
X1869808Y1893811D1*
X1872240Y1898564D1*
X1823307Y1939242D2*
X1804184Y1889002D1*
X1785061Y1939242D1*
X1687695Y1826594D2*
X1660061D1*
X2019116Y1835622D2*
Y1792567D1*
X2040616Y1814067D2*
X1997561D1*
X813450Y1289242D2*
Y1239002D1*
X791895D1*
X784709Y1241434D1*
X782333Y1243811D1*
X779956Y1248564D1*
Y1255749D1*
X782333Y1260557D1*
X784709Y1262934D1*
X791895Y1265310D1*
X784709Y1267742D1*
X782333Y1270119D1*
X779956Y1274872D1*
Y1279680D1*
X782333Y1284434D1*
X784709Y1286866D1*
X791895Y1289242D1*
X813450D1*
Y1265310D2*
X791895D1*
X747770Y1289242D2*
Y1239002D1*
X764517Y1289242D2*
X731024D1*
X715584Y1279625D2*
X710776Y1282057D1*
X703591Y1289187D1*
Y1239002D1*
X622804Y1302341D2*
X627613Y1297588D1*
X632366Y1290403D1*
X637174Y1280841D1*
X639551Y1268848D1*
Y1259286D1*
X637174Y1247348D1*
X632366Y1237786D1*
X627613Y1230601D1*
X622804Y1225848D1*
X607365Y1289242D2*
Y1239002D1*
X577556Y1289242D2*
X582364Y1286866D1*
X587117Y1282057D1*
X589549Y1277304D1*
X591926Y1270119D1*
Y1258125D1*
X589549Y1250996D1*
X587117Y1246187D1*
X582364Y1241434D1*
X577556Y1239002D1*
X567994D1*
X563241Y1241434D1*
X558432Y1246187D1*
X556056Y1250996D1*
X553679Y1258125D1*
Y1270119D1*
X556056Y1277304D1*
X558432Y1282057D1*
X563241Y1286866D1*
X567994Y1289242D1*
X577556D1*
X523870Y1289187D2*
X531055Y1286810D1*
X535863Y1279625D1*
X538240Y1267687D1*
Y1260502D1*
X535863Y1248564D1*
X531055Y1241379D1*
X523870Y1239002D1*
X519117D1*
X511932Y1241379D1*
X507178Y1248564D1*
X504747Y1260502D1*
Y1267687D1*
X507178Y1279625D1*
X511932Y1286810D1*
X519117Y1289187D1*
X523870D1*
X507178Y1279625D2*
X535863Y1248564D1*
X489307Y1302341D2*
X484499Y1297588D1*
X479746Y1290403D1*
X474937Y1280841D1*
X472561Y1268848D1*
Y1259286D1*
X474937Y1247348D1*
X479746Y1237786D1*
X484499Y1230601D1*
X489307Y1225848D1*
X1400950Y1289242D2*
Y1239002D1*
X1379395D1*
X1372209Y1241434D1*
X1369833Y1243811D1*
X1367456Y1248564D1*
Y1255749D1*
X1369833Y1260557D1*
X1372209Y1262934D1*
X1379395Y1265310D1*
X1372209Y1267742D1*
X1369833Y1270119D1*
X1367456Y1274872D1*
Y1279680D1*
X1369833Y1284434D1*
X1372209Y1286866D1*
X1379395Y1289242D1*
X1400950D1*
Y1265310D2*
X1379395D1*
X1335270Y1289242D2*
Y1239002D1*
X1352017Y1289242D2*
X1318524D1*
X1300653Y1277249D2*
Y1279625D1*
X1298276Y1284434D1*
X1295899Y1286810D1*
X1291091Y1289187D1*
X1281529D1*
X1276776Y1286810D1*
X1274400Y1284434D1*
X1271968Y1279625D1*
Y1274872D1*
X1274400Y1270064D1*
X1279153Y1262934D1*
X1303084Y1239002D1*
X1269591D1*
X1188804Y1302341D2*
X1193613Y1297588D1*
X1198366Y1290403D1*
X1203174Y1280841D1*
X1205551Y1268848D1*
Y1259286D1*
X1203174Y1247348D1*
X1198366Y1237786D1*
X1193613Y1230601D1*
X1188804Y1225848D1*
X1173365Y1289242D2*
Y1239002D1*
X1143556Y1289242D2*
X1148364Y1286866D1*
X1153117Y1282057D1*
X1155549Y1277304D1*
X1157926Y1270119D1*
Y1258125D1*
X1155549Y1250996D1*
X1153117Y1246187D1*
X1148364Y1241434D1*
X1143556Y1239002D1*
X1133994D1*
X1129241Y1241434D1*
X1124432Y1246187D1*
X1122056Y1250996D1*
X1119679Y1258125D1*
Y1270119D1*
X1122056Y1277304D1*
X1124432Y1282057D1*
X1129241Y1286866D1*
X1133994Y1289242D1*
X1143556D1*
X1104240Y1279625D2*
X1099432Y1282057D1*
X1092247Y1289187D1*
Y1239002D1*
X1076807Y1302341D2*
X1071999Y1297588D1*
X1067246Y1290403D1*
X1062437Y1280841D1*
X1060061Y1268848D1*
Y1259286D1*
X1062437Y1247348D1*
X1067246Y1237786D1*
X1071999Y1230601D1*
X1076807Y1225848D1*
X1997449Y1289242D2*
Y1239002D1*
X1975894D1*
X1968709Y1241434D1*
X1966333Y1243811D1*
X1963956Y1248564D1*
Y1255749D1*
X1966333Y1260557D1*
X1968709Y1262934D1*
X1975894Y1265310D1*
X1968709Y1267742D1*
X1966333Y1270119D1*
X1963956Y1274872D1*
Y1279680D1*
X1966333Y1284434D1*
X1968709Y1286866D1*
X1975894Y1289242D1*
X1997449D1*
Y1265310D2*
X1975894D1*
X1931770Y1289242D2*
Y1239002D1*
X1948517Y1289242D2*
X1915024D1*
X1894776Y1289187D2*
X1868523D1*
X1882838Y1270064D1*
X1875653D1*
X1870899Y1267687D1*
X1868523Y1265310D1*
X1866091Y1258125D1*
Y1253372D1*
X1868523Y1246187D1*
X1873276Y1241379D1*
X1880461Y1239002D1*
X1887646D1*
X1894776Y1241379D1*
X1897152Y1243811D1*
X1899584Y1248564D1*
X1785304Y1302341D2*
X1790113Y1297588D1*
X1794866Y1290403D1*
X1799674Y1280841D1*
X1802051Y1268848D1*
Y1259286D1*
X1799674Y1247348D1*
X1794866Y1237786D1*
X1790113Y1230601D1*
X1785304Y1225848D1*
X1769865Y1289242D2*
Y1239002D1*
X1740056Y1289242D2*
X1744864Y1286866D1*
X1749617Y1282057D1*
X1752049Y1277304D1*
X1754426Y1270119D1*
Y1258125D1*
X1752049Y1250996D1*
X1749617Y1246187D1*
X1744864Y1241434D1*
X1740056Y1239002D1*
X1730494D1*
X1725741Y1241434D1*
X1720932Y1246187D1*
X1718556Y1250996D1*
X1716179Y1258125D1*
Y1270119D1*
X1718556Y1277304D1*
X1720932Y1282057D1*
X1725741Y1286866D1*
X1730494Y1289242D1*
X1740056D1*
X1698308Y1277249D2*
Y1279625D1*
X1695931Y1284434D1*
X1693555Y1286810D1*
X1688746Y1289187D1*
X1679185D1*
X1674432Y1286810D1*
X1672055Y1284434D1*
X1669623Y1279625D1*
Y1274872D1*
X1672055Y1270064D1*
X1676808Y1262934D1*
X1700740Y1239002D1*
X1667247D1*
X1651807Y1302341D2*
X1646999Y1297588D1*
X1642246Y1290403D1*
X1637437Y1280841D1*
X1635061Y1268848D1*
Y1259286D1*
X1637437Y1247348D1*
X1642246Y1237786D1*
X1646999Y1230601D1*
X1651807Y1225848D1*
X2689822Y1693359D2*
D87*
X2658638Y1562735D1*
X2627599Y1693359D1*
X2596560Y1562735D1*
X2565377Y1693359D1*
X2525235D2*
X2519056Y1687180D1*
X2512733Y1693359D1*
X2519056Y1699682D1*
X2525235Y1693359D1*
X2519056Y1649818D2*
Y1562735D1*
X2391687Y1693359D2*
X2472591D1*
Y1562735D1*
Y1631136D2*
X2422870D1*
X2351545Y1693359D2*
X2345366Y1687180D1*
X2339043Y1693359D1*
X2345366Y1699682D1*
X2351545Y1693359D1*
X2345366Y1649818D2*
Y1562735D1*
X2172539Y1693359D2*
Y1562735D1*
X2132396Y1631136D2*
X2076497D1*
X2057816Y1637459D1*
X2051493Y1643638D1*
X2045314Y1655997D1*
Y1668499D1*
X2051493Y1680857D1*
X2057816Y1687180D1*
X2076497Y1693359D1*
X2132396D1*
Y1562735D1*
X2088855Y1631136D2*
X2045314Y1562735D1*
X1878809Y1693359D2*
Y1562735D1*
X1822766D1*
X1804085Y1569058D1*
X1797906Y1575237D1*
X1791727Y1587595D1*
Y1606276D1*
X1797906Y1618778D1*
X1804085Y1624957D1*
X1822766Y1631136D1*
X1804085Y1637459D1*
X1797906Y1643638D1*
X1791727Y1655997D1*
Y1668499D1*
X1797906Y1680857D1*
X1804085Y1687180D1*
X1822766Y1693359D1*
X1878809D1*
Y1631136D2*
X1822766D1*
X1751585Y1693359D2*
Y1562735D1*
X1636862Y1649818D2*
Y1562735D1*
Y1631136D2*
X1649220Y1643638D1*
X1661722Y1649818D1*
X1680259D1*
X1692761Y1643638D1*
X1705120Y1631136D1*
X1711442Y1612455D1*
Y1600097D1*
X1705120Y1581416D1*
X1692761Y1569058D1*
X1680259Y1562735D1*
X1661722D1*
X1649220Y1569058D1*
X1636862Y1581416D1*
X1528318Y1631136D2*
X1534497Y1643638D1*
X1553178Y1649818D1*
X1571860D1*
X1590541Y1643638D1*
X1596720Y1631136D1*
X1590541Y1618778D1*
X1578039Y1612455D1*
X1546999Y1606276D1*
X1534497Y1600097D1*
X1528318Y1587595D1*
Y1581416D1*
X1534497Y1569058D1*
X1553178Y1562735D1*
X1571860D1*
X1590541Y1569058D1*
X1596720Y1581416D1*
X1469495Y1693359D2*
Y1587595D1*
X1463316Y1569058D1*
X1450814Y1562735D1*
X1438456D1*
X1488176Y1649818D2*
X1444635D1*
X1398314Y1612455D2*
X1323733D1*
Y1624957D1*
X1329912Y1637459D1*
X1336091Y1643638D1*
X1348593Y1649818D1*
X1367274D1*
X1379633Y1643638D1*
X1392134Y1631136D1*
X1398314Y1612455D1*
Y1600097D1*
X1392134Y1581416D1*
X1379633Y1569058D1*
X1367274Y1562735D1*
X1348593D1*
X1336091Y1569058D1*
X1323733Y1581416D1*
X1283591Y1649818D2*
Y1562735D1*
Y1612455D2*
X1277268Y1631136D1*
X1264910Y1643638D1*
X1252408Y1649818D1*
X1233727D1*
X1067222Y1693359D2*
X1017502Y1562735D1*
X967781Y1693359D1*
X927639Y1668355D2*
X915137Y1674678D1*
X896456Y1693215D1*
Y1562735D1*
X850135Y1575237D2*
X856314Y1568914D1*
X850135Y1562735D1*
X843812Y1568914D1*
X850135Y1575237D1*
X803670Y1668355D2*
X791168Y1674678D1*
X772487Y1693215D1*
Y1562735D1*
X1845020Y643224D2*
D88*
X1810531D1*
X1799124Y647027D1*
X1795233Y650918D1*
X1791430Y658523D1*
Y670019D1*
X1795233Y677624D1*
X1799124Y681515D1*
X1810531Y685318D1*
X1845020D1*
Y604934D1*
X1720832Y658523D2*
Y604934D1*
Y647027D2*
X1728437Y654720D1*
X1736130Y658523D1*
X1747538D1*
X1755231Y654720D1*
X1762836Y647027D1*
X1766727Y635531D1*
Y627926D1*
X1762836Y616430D1*
X1755231Y608825D1*
X1747538Y604934D1*
X1736130D1*
X1728437Y608825D1*
X1720832Y616430D1*
X1696129Y650829D2*
X1690469Y655958D1*
X1681803Y658523D1*
X1670395D1*
X1661729Y655958D1*
X1655981Y650829D1*
Y645789D1*
X1658899Y640660D1*
X1661729Y638095D1*
X1667477Y635619D1*
X1667654D2*
X1681803Y633232D1*
X1667477Y630490D2*
X1661641Y627926D1*
X1658811Y625361D1*
X1655981Y620232D1*
Y612627D1*
X1661641Y607498D1*
X1670307Y604934D1*
X1681715D1*
X1690381Y607498D1*
X1696129Y612627D1*
X1681803Y633232D2*
X1667477Y630490D1*
X1631278Y658523D2*
Y578139D1*
Y647027D2*
X1623673Y654632D1*
X1615980Y658523D1*
X1604484D1*
X1596879Y654632D1*
X1589185Y647027D1*
X1585382Y635531D1*
Y627837D1*
X1589185Y616430D1*
X1596879Y608736D1*
X1604484Y604934D1*
X1615980D1*
X1623673Y608736D1*
X1631278Y616430D1*
X1514784Y658523D2*
Y604934D1*
Y647027D2*
X1522389Y654720D1*
X1530082Y658523D1*
X1541490D1*
X1549184Y654720D1*
X1556789Y647027D1*
X1560680Y635531D1*
Y627926D1*
X1556789Y616430D1*
X1549184Y608825D1*
X1541490Y604934D1*
X1530082D1*
X1522389Y608825D1*
X1514784Y616430D1*
X1490081Y670196D2*
Y616606D1*
Y670373D2*
X1482476Y678066D1*
X1474782Y681869D1*
X1463375D1*
Y658523D2*
X1455681Y654720D1*
X1448076Y647027D1*
X1444185Y635531D1*
Y627926D1*
X1448076Y616430D1*
X1455681Y608825D1*
X1463375Y604934D1*
X1474782D1*
X1482476Y608825D1*
X1490081Y616430D1*
X1470891Y658523D2*
X1463375D1*
X1490081Y635531D2*
X1486190Y647027D1*
X1478585Y654720D1*
X1470891Y658523D1*
Y681869D2*
X1459395D1*
X1402238Y658523D2*
X1407986Y655958D1*
X1413734Y650829D1*
X1416653Y645789D1*
X1419482Y638095D1*
Y625361D1*
X1416653Y617756D1*
X1413734Y612627D1*
X1407986Y607498D1*
X1402238Y604934D1*
X1390831D1*
X1385083Y607498D1*
X1379335Y612627D1*
X1376505Y617756D1*
X1373675Y625361D1*
Y638095D1*
X1376505Y645789D1*
X1379335Y650829D1*
X1385083Y655958D1*
X1390831Y658523D1*
X1402238D1*
X1328898D2*
Y604934D1*
X1348972Y658523D2*
X1308824D1*
X1238226D2*
Y604934D1*
Y647027D2*
X1245831Y654720D1*
X1253524Y658523D1*
X1264932D1*
X1272626Y654720D1*
X1280231Y647027D1*
X1284122Y635531D1*
Y627926D1*
X1280231Y616430D1*
X1272626Y608825D1*
X1264932Y604934D1*
X1253524D1*
X1245831Y608825D1*
X1238226Y616430D1*
X1213523Y658523D2*
Y604934D1*
X1173375Y658523D2*
Y604934D1*
X1213523Y632966D2*
X1173375D1*
X1131428Y658523D2*
X1137176Y655958D1*
X1142924Y650829D1*
X1145843Y645789D1*
X1148672Y638095D1*
Y625361D1*
X1145843Y617756D1*
X1142924Y612627D1*
X1137176Y607498D1*
X1131428Y604934D1*
X1120021D1*
X1114273Y607498D1*
X1108525Y612627D1*
X1105695Y617756D1*
X1102865Y625361D1*
Y638095D1*
X1105695Y645789D1*
X1108525Y650829D1*
X1114273Y655958D1*
X1120021Y658523D1*
X1131428D1*
X1000401D2*
Y604934D1*
X974579D1*
X965913Y607498D1*
X963083Y610063D1*
X960253Y615103D1*
Y622797D1*
X963083Y627926D1*
X965913Y630490D1*
X974579Y632966D1*
X965913Y635619D1*
X963083Y638095D1*
X960253Y643224D1*
Y648353D1*
X963083Y653394D1*
X965913Y655958D1*
X974579Y658523D1*
X1000401D1*
Y632966D2*
X974579D1*
X857789Y643224D2*
X823300D1*
X811893Y647027D1*
X808002Y650918D1*
X804199Y658523D1*
Y670019D1*
X808002Y677624D1*
X811893Y681515D1*
X823300Y685318D1*
X857789D1*
Y604934D1*
X762252Y658523D2*
X768000Y655958D1*
X773748Y650829D1*
X776667Y645789D1*
X779496Y638095D1*
Y625361D1*
X776667Y617756D1*
X773748Y612627D1*
X768000Y607498D1*
X762252Y604934D1*
X750845D1*
X745097Y607498D1*
X739349Y612627D1*
X736519Y617756D1*
X733689Y625361D1*
Y638095D1*
X736519Y645789D1*
X739349Y650829D1*
X745097Y655958D1*
X750845Y658523D1*
X762252D1*
X666009Y645789D2*
X668838Y650829D1*
X674587Y655958D1*
X680335Y658523D1*
X691742D1*
X697490Y655958D1*
X703238Y650829D1*
X706156Y645789D1*
X708986Y638095D1*
Y625361D1*
X706156Y617756D1*
X703238Y612627D1*
X697490Y607498D1*
X691742Y604934D1*
X680335D1*
X674587Y607498D1*
X668838Y612627D1*
X666009Y617756D1*
X598328Y645789D2*
X601158Y650829D1*
X606906Y655958D1*
X612654Y658523D1*
X624062D1*
X629810Y655958D1*
X635558Y650829D1*
X638476Y645789D1*
X641306Y638095D1*
Y625361D1*
X638476Y617756D1*
X635558Y612627D1*
X629810Y607498D1*
X624062Y604934D1*
X612654D1*
X606906Y607498D1*
X601158Y612627D1*
X598328Y617756D1*
X533478Y658523D2*
Y604934D1*
Y658523D2*
X573626Y604934D1*
Y658523D2*
Y604934D1*
X468627Y658523D2*
Y604934D1*
Y658523D2*
X508775Y604934D1*
Y658523D2*
Y604934D1*
X1588300Y822818D2*
Y742434D1*
Y780724D2*
X1576804Y792220D1*
X1569110Y796023D1*
X1557614D1*
X1550009Y792220D1*
X1546207Y780724D1*
Y742434D1*
X1510008Y822818D2*
Y757732D1*
X1506205Y746325D1*
X1498512Y742434D1*
X1490907D1*
X1521504Y796023D2*
X1494709D1*
X1454708Y822818D2*
Y757732D1*
X1450905Y746325D1*
X1443212Y742434D1*
X1435607D1*
X1466204Y796023D2*
X1439409D1*
X1410904D2*
Y715639D1*
Y784527D2*
X1403210Y792132D1*
X1395605Y796023D1*
X1384109D1*
X1376416Y792132D1*
X1368811Y784527D1*
X1364920Y773031D1*
Y765337D1*
X1368811Y753930D1*
X1376416Y746236D1*
X1384109Y742434D1*
X1395605D1*
X1403210Y746236D1*
X1410904Y753930D1*
X1336326Y796023D2*
X1340217Y792132D1*
X1336326Y788329D1*
X1332523Y792132D1*
X1336326Y796023D1*
Y750127D2*
X1340217Y746236D1*
X1336326Y742434D1*
X1332523Y746236D1*
X1336326Y750127D1*
X1307821Y742434D2*
X1254231Y822729D1*
X1229528Y742434D2*
X1175939Y822729D1*
X1109143Y784527D2*
X1112946Y792220D1*
X1124442Y796023D1*
X1135938D1*
X1147434Y792220D1*
X1151236Y784527D1*
X1147434Y776922D1*
X1139740Y773031D1*
X1120639Y769228D1*
X1112946Y765426D1*
X1109143Y757732D1*
Y753930D1*
X1112946Y746325D1*
X1124442Y742434D1*
X1135938D1*
X1147434Y746325D1*
X1151236Y753930D1*
X1038544Y796023D2*
Y742434D1*
Y784527D2*
X1046149Y792220D1*
X1053843Y796023D1*
X1065251D1*
X1072944Y792220D1*
X1080549Y784527D1*
X1084440Y773031D1*
Y765426D1*
X1080549Y753930D1*
X1072944Y746325D1*
X1065251Y742434D1*
X1053843D1*
X1046149Y746325D1*
X1038544Y753930D1*
X1013842Y796023D2*
Y742434D1*
Y780724D2*
X1002346Y792220D1*
X994652Y796023D1*
X983244D1*
X975551Y792220D1*
X971748Y780724D1*
Y742434D1*
Y780724D2*
X960252Y792220D1*
X952559Y796023D1*
X941151D1*
X933458Y792220D1*
X929567Y780724D1*
Y742434D1*
X885763Y796023D2*
X893368Y792220D1*
X901061Y784527D1*
X904864Y773031D1*
Y765426D1*
X901061Y753930D1*
X893368Y746325D1*
X885763Y742434D1*
X874267D1*
X866573Y746325D1*
X858968Y753930D1*
X855077Y765426D1*
Y773031D1*
X858968Y784527D1*
X866573Y792220D1*
X874267Y796023D1*
X885763D1*
X830374D2*
Y715639D1*
Y784527D2*
X822681Y792132D1*
X815076Y796023D1*
X803580D1*
X795886Y792132D1*
X788281Y784527D1*
X784390Y773031D1*
Y765337D1*
X788281Y753930D1*
X795886Y746236D1*
X803580Y742434D1*
X815076D1*
X822681Y746236D1*
X830374Y753930D1*
X713791Y796023D2*
Y742434D1*
Y784527D2*
X721396Y792220D1*
X729090Y796023D1*
X740498D1*
X748191Y792220D1*
X755796Y784527D1*
X759687Y773031D1*
Y765426D1*
X755796Y753930D1*
X748191Y746325D1*
X740498Y742434D1*
X729090D1*
X721396Y746325D1*
X713791Y753930D1*
X689089Y822818D2*
Y742434D1*
X660583Y750127D2*
X664386Y746236D1*
X660583Y742434D1*
X656692Y746236D1*
X660583Y750127D1*
X631989Y796023D2*
Y715639D1*
Y784527D2*
X624296Y792132D1*
X616691Y796023D1*
X605195D1*
X597501Y792132D1*
X589896Y784527D1*
X586005Y773031D1*
Y765337D1*
X589896Y753930D1*
X597501Y746236D1*
X605195Y742434D1*
X616691D1*
X624296Y746236D1*
X631989Y753930D1*
X561302Y796023D2*
Y742434D1*
Y773031D2*
X557411Y784527D1*
X549806Y792220D1*
X542113Y796023D1*
X530617D1*
X486813D2*
X494418Y792220D1*
X502111Y784527D1*
X505914Y773031D1*
Y765426D1*
X502111Y753930D1*
X494418Y746325D1*
X486813Y742434D1*
X475317D1*
X467623Y746325D1*
X460018Y753930D1*
X456127Y765426D1*
Y773031D1*
X460018Y784527D1*
X467623Y792220D1*
X475317Y796023D1*
X486813D1*
M02*
