G04 DipTrace 5.1.0.2*
G04 Bottom.gbr*
%MOIN*%
G04 #@! TF.FileFunction,Copper,L2,Bot*
G04 #@! TF.Part,Single*
G04 #@! TA.AperFunction,Conductor*
%ADD15C,0.019685*%
%ADD16C,0.03937*%
%ADD17C,0.023622*%
%ADD18C,0.015748*%
G04 #@! TA.AperFunction,CopperBalancing*
%ADD25C,0.025*%
G04 #@! TA.AperFunction,ComponentPad*
%ADD28R,0.059055X0.059055*%
%ADD29C,0.059055*%
%ADD33O,0.082677X0.041339*%
%ADD35O,0.07874X0.03937*%
%ADD36C,0.098425*%
%ADD39C,0.094488*%
%ADD42C,0.015748*%
%ADD43R,0.04685X0.04685*%
%ADD44C,0.04685*%
G04 #@! TA.AperFunction,ViaPad*
%ADD45C,0.047244*%
%ADD46C,0.031496*%
%FSLAX26Y26*%
G04*
G70*
G90*
G75*
G01*
G04 Bottom*
%LPD*%
X2206201Y1568701D2*
D15*
X2456201D1*
X658270Y1561125D2*
D16*
X876277D1*
X1043701Y1393701D1*
X1105610D1*
X1132776Y1366535D1*
X545276Y874409D2*
Y829626D1*
X593701Y781201D1*
X1125997D1*
X1720276D1*
Y874409D1*
X1132776D2*
Y787979D1*
X1125997Y781201D1*
X658270Y1561125D2*
X545276D1*
Y1561121D1*
X493703D1*
X545276Y1366535D2*
Y1561121D1*
Y1366535D2*
Y1248374D1*
Y874409D1*
X2582972Y1290059D2*
D18*
X2604626Y1311713D1*
X2626280D1*
X2647933D1*
X2669587Y1290059D1*
Y1268406D1*
Y1246752D1*
X2647933Y1225098D1*
X2626280D1*
X2604626D1*
X2582972Y1246752D1*
Y1268406D1*
Y1290059D1*
X2604626Y1268406D2*
X2582972D1*
X2647933D2*
X2669587D1*
X2626280Y1290059D2*
Y1311713D1*
Y1246752D2*
Y1225098D1*
Y1246752D2*
Y1290059D1*
X2647933Y1268406D2*
X2604626D1*
X2582972Y1246752D2*
X1740650D1*
X1720276Y1267126D1*
Y1366535D1*
X545276Y1248374D2*
D16*
X1132776D1*
X1710874D1*
X1731201Y1268701D1*
Y1355610D1*
X1720276Y1366535D1*
X1132776D2*
Y1248374D1*
X1720276Y781201D2*
X2776576D1*
X2814075Y743702D1*
X2168701Y618701D2*
X2406201D1*
X2556201D1*
X2606201Y568701D1*
X2406201Y493701D2*
Y618701D1*
X2814075Y743702D2*
X2881201Y676576D1*
Y581201D1*
X2856201Y556201D1*
X2618701D1*
X2606201Y568701D1*
X493694Y1901278D2*
X561181D1*
Y1901282D1*
X658261D1*
X545276Y1561121D2*
Y1885377D1*
X561181Y1901282D1*
X2831201Y1106201D2*
D15*
X2643701D1*
X2518701Y981201D1*
X848917D1*
X742126Y874409D1*
X2787450Y1068701D2*
X2656201D1*
X2531201Y943701D1*
X1398917D1*
X1329626Y874409D1*
X2749950Y1031201D2*
X2668701D1*
X2543701Y906201D1*
X1948917D1*
X1917126Y874409D1*
X2756201Y1393701D2*
X2556201D1*
X2306201D1*
X2814072Y843702D2*
Y976572D1*
X2881201Y1043701D1*
Y1156201D1*
X2831201Y1206201D1*
X2743701D1*
X2343701Y1431201D2*
X2543701D1*
X2631201D1*
X2268701Y1356201D2*
X2568701D1*
X2818701D1*
X1006201Y1756201D2*
X1031201D1*
X1081201Y1706201D1*
X1418701D1*
X1618701Y1506201D1*
X2466791D1*
X2468701Y1504291D1*
X1006201Y1674950D2*
X1399951D1*
X1606201Y1468701D1*
X2518701D1*
X781201Y693701D2*
D16*
X1293701D1*
X1556201D1*
X1818701D1*
X1556201D2*
D3*
X1818701D2*
X2068701D1*
X2718701D1*
X1656201Y1593701D2*
X2018701D1*
X2168701Y1743701D1*
X2256201D1*
X2813024D1*
X2825524Y1731201D1*
X2868701D1*
X2256201Y1818701D2*
Y1743701D1*
X743701Y1824951D2*
D17*
Y1631201D1*
D16*
X1056201D1*
X1065453Y518701D2*
Y471949D1*
X1093701Y443701D1*
X1565453D1*
X2056201D1*
X2068701Y456201D1*
Y515453D1*
X2065453Y518701D1*
X1565453D2*
Y443701D1*
X1543701Y1656201D2*
X1756201D1*
X1918701Y1818701D1*
D45*
X781201Y693701D3*
X1293701D3*
X1818701D3*
D46*
X2749950Y1031201D3*
X2787450Y1068701D3*
X2831201Y1106201D3*
X743701Y1631201D3*
Y1824951D3*
X1056201Y1631201D3*
X1006201Y1756201D3*
Y1674950D3*
X2468701Y1504291D3*
X2518701Y1468701D3*
X2343701Y1431201D3*
X2306201Y1393701D3*
X2206201Y1568701D3*
X2456201D3*
X2631201Y1431201D3*
X2268701Y1356201D3*
X2756201Y1393701D3*
X2818701Y1356201D3*
X2743701Y1206201D3*
D45*
X1543701Y1656201D3*
X1556201Y693701D3*
X2068701D3*
X2718701D3*
X2168701Y618701D3*
X2606201Y568701D3*
X2868701Y1731201D3*
X2256201Y1818701D3*
X1656201Y1593701D3*
X458710Y1881332D2*
D25*
X621235D1*
X680904D2*
X1863438D1*
X1973974D2*
X2891197D1*
X458710Y1856463D2*
X604567D1*
X782978D2*
X1843522D1*
X1993871D2*
X2211928D1*
X2300466D2*
X2891197D1*
X458710Y1831594D2*
X605105D1*
X794173D2*
X1835323D1*
X2002071D2*
X2198883D1*
X2313509D2*
X2891197D1*
X458710Y1806726D2*
X623980D1*
X678177D2*
X696323D1*
X791070D2*
X1830155D1*
X2002214D2*
X2198686D1*
X2313724D2*
X2891197D1*
X458710Y1781857D2*
X696699D1*
X790693D2*
X962619D1*
X1068185D2*
X1805287D1*
X1994337D2*
X2130327D1*
X458710Y1756988D2*
X696699D1*
X790693D2*
X955281D1*
X1093052D2*
X1780420D1*
X1975050D2*
X2105423D1*
X458710Y1732119D2*
X696699D1*
X790693D2*
X961686D1*
X1455429D2*
X1755552D1*
X1908682D2*
X2080555D1*
X458710Y1707251D2*
X696699D1*
X790693D2*
X967608D1*
X1480297D2*
X1517442D1*
X1883815D2*
X2055688D1*
X458710Y1682382D2*
X696699D1*
X1858946D2*
X2030820D1*
X2183950D2*
X2804070D1*
X458710Y1657513D2*
X627102D1*
X675055D2*
X695928D1*
X1834079D2*
X2005951D1*
X2159081D2*
X2878996D1*
X458710Y1632644D2*
X605734D1*
X2134214D2*
X2878996D1*
X458710Y1607776D2*
X604136D1*
X1105541D2*
X1404479D1*
X2109346D2*
X2175092D1*
X2487315D2*
X2878996D1*
X458710Y1582907D2*
X618974D1*
X683201D2*
X720940D1*
X1078950D2*
X1429346D1*
X2084461D2*
X2157402D1*
X2505005D2*
X2878996D1*
X458710Y1558038D2*
X1454215D1*
X2059593D2*
X2156450D1*
X2505938D2*
X2878996D1*
X458710Y1533169D2*
X1479083D1*
X2510083D2*
X2878996D1*
X458710Y1508301D2*
X1503950D1*
X2549089D2*
X2878996D1*
X458710Y1483432D2*
X1528818D1*
X2567336D2*
X2878996D1*
X458710Y1458563D2*
X1553703D1*
X2673661D2*
X2878996D1*
X458710Y1433694D2*
X696287D1*
X787965D2*
X1283782D1*
X1375461D2*
X1579558D1*
X2786014D2*
X2878996D1*
X458710Y1408825D2*
X671795D1*
X812457D2*
X1259310D1*
X1399951D2*
X1846806D1*
X1987448D2*
X2257698D1*
X2804710D2*
X2878996D1*
X458710Y1383957D2*
X661623D1*
X822629D2*
X1249118D1*
X1410125D2*
X1836614D1*
X1997639D2*
X2226514D1*
X2860887D2*
X2878996D1*
X458710Y1359088D2*
X660043D1*
X824209D2*
X1247539D1*
X1411703D2*
X1835035D1*
X1999199D2*
X2217848D1*
X458710Y1334219D2*
X666521D1*
X817731D2*
X1254017D1*
X1405227D2*
X1841513D1*
X1992723D2*
X2223051D1*
X2864349D2*
X2878996D1*
X458710Y1309350D2*
X683781D1*
X800471D2*
X1271277D1*
X1387967D2*
X1858791D1*
X1975462D2*
X2253912D1*
X2283475D2*
X2803927D1*
X2833490D2*
X2878996D1*
X458710Y1284482D2*
X2878996D1*
X458710Y1259613D2*
X2878996D1*
X458710Y1234744D2*
X2702070D1*
X2865301D2*
X2878996D1*
X458710Y1209875D2*
X2692902D1*
X490844Y1185007D2*
X796566D1*
X845164D2*
X1029723D1*
X1078340D2*
X1384062D1*
X1432678D2*
X1617236D1*
X1665836D2*
X1971556D1*
X2020175D2*
X2697656D1*
X524413Y1160138D2*
X762996D1*
X878752D2*
X996154D1*
X1111909D2*
X1350491D1*
X1466248D2*
X1583650D1*
X1699406D2*
X1937987D1*
X2053744D2*
X2726238D1*
X2761165D2*
X2814621D1*
X535520Y1135269D2*
X751871D1*
X889858D2*
X985047D1*
X1123034D2*
X1339367D1*
X1477354D2*
X1572543D1*
X1710530D2*
X1926881D1*
X2064850D2*
X2610134D1*
X536399Y1110400D2*
X750992D1*
X890738D2*
X984168D1*
X1123913D2*
X1338488D1*
X1478234D2*
X1571664D1*
X1711408D2*
X1926003D1*
X2065730D2*
X2585248D1*
X527517Y1085531D2*
X759891D1*
X881839D2*
X993067D1*
X1115013D2*
X1347387D1*
X1469335D2*
X1580563D1*
X1702509D2*
X1934883D1*
X2056848D2*
X2560381D1*
X501646Y1060663D2*
X785764D1*
X855966D2*
X1018940D1*
X1089142D2*
X1373260D1*
X1443462D2*
X1606436D1*
X1676636D2*
X1960756D1*
X2030975D2*
X2535513D1*
X458710Y1035794D2*
X2510646D1*
X458710Y1010925D2*
X815996D1*
X458710Y986056D2*
X791129D1*
X2686202D2*
X2729916D1*
X458710Y961188D2*
X766261D1*
X2661335D2*
X2769047D1*
X2861336D2*
X2878996D1*
X458710Y936319D2*
X689073D1*
X866677D2*
X1276570D1*
X2636467D2*
X2769047D1*
X2859093D2*
X2878996D1*
X458710Y911450D2*
X668799D1*
X841810D2*
X1256295D1*
X2611600D2*
X2769047D1*
X2859093D2*
X2891197D1*
X458710Y886581D2*
X660636D1*
X823615D2*
X1248131D1*
X1411130D2*
X1835627D1*
X2586732D2*
X2755465D1*
X2872675D2*
X2891197D1*
X458710Y861713D2*
X660707D1*
X823545D2*
X1248203D1*
X1411041D2*
X1835718D1*
X1998535D2*
X2755465D1*
X2872675D2*
X2891197D1*
X458710Y836844D2*
X669068D1*
X815184D2*
X1256583D1*
X1402680D2*
X1844079D1*
X1990175D2*
X2755465D1*
X2872675D2*
X2891197D1*
X458710Y811975D2*
X689720D1*
X794531D2*
X1277217D1*
X1382028D2*
X1864711D1*
X1969524D2*
X2755465D1*
X2872675D2*
X2891197D1*
X458710Y787106D2*
X2891197D1*
X458710Y762238D2*
X2891197D1*
X458710Y737369D2*
X743152D1*
X2756751D2*
X2891197D1*
X458710Y712500D2*
X725622D1*
X2774281D2*
X2891197D1*
X458710Y687631D2*
X722715D1*
X2851486D2*
X2891197D1*
X458710Y662762D2*
X731651D1*
X2869356D2*
X2891197D1*
X458710Y637894D2*
X771213D1*
X791194D2*
X1283711D1*
X1303693D2*
X1546222D1*
X1566185D2*
X1808715D1*
X1828697D2*
X2058719D1*
X2078684D2*
X2708707D1*
X2728689D2*
X2755770D1*
X2872387D2*
X2891197D1*
X458710Y613025D2*
X2764597D1*
X2863560D2*
X2891197D1*
X571978Y588156D2*
X2803639D1*
X2824518D2*
X2891197D1*
X594962Y563287D2*
X669571D1*
X880169D2*
X919558D1*
X1130156D2*
X1169563D1*
X1380161D2*
X1419568D1*
X1630167D2*
X1669573D1*
X1880172D2*
X1919560D1*
X2130159D2*
X2891197D1*
X606211Y538419D2*
X653944D1*
X880169D2*
X903949D1*
X1130156D2*
X1153954D1*
X1380161D2*
X1403941D1*
X1630167D2*
X1653946D1*
X1880172D2*
X1903951D1*
X2130159D2*
X2460444D1*
X2551959D2*
X2891197D1*
X609979Y513550D2*
X650948D1*
X880169D2*
X900953D1*
X1130156D2*
X1150958D1*
X1380161D2*
X1400962D1*
X1630167D2*
X1650950D1*
X1880172D2*
X1900955D1*
X2130159D2*
X2444744D1*
X2567659D2*
X2891197D1*
X607144Y488681D2*
X658465D1*
X880169D2*
X908470D1*
X2130159D2*
X2441694D1*
X2570710D2*
X2891197D1*
X597079Y463812D2*
X683673D1*
X880169D2*
X933660D1*
X2130159D2*
X2449139D1*
X2563264D2*
X2891197D1*
X2637886Y1148328D2*
X2628983Y1146101D1*
X2620773Y1142018D1*
X2613629Y1136273D1*
X2501076Y1023728D1*
X848944D1*
X843093Y1023328D1*
X834199Y1021101D1*
X825990Y1017018D1*
X818845Y1011273D1*
X759837Y952265D1*
X758054Y952736D1*
X749021Y954041D1*
X739899Y954307D1*
X730806Y953533D1*
X721860Y951727D1*
X713178Y948912D1*
X704874Y945127D1*
X697056Y940420D1*
X689825Y934852D1*
X683277Y928496D1*
X677495Y921436D1*
X672555Y913761D1*
X668522Y905575D1*
X665450Y896982D1*
X663377Y888093D1*
X662331Y879028D1*
X662324Y869902D1*
X663358Y860835D1*
X665419Y851944D1*
X668480Y843346D1*
X672501Y835154D1*
X677429Y827472D1*
X683202Y820404D1*
X689741Y814039D1*
X696965Y808462D1*
X704777Y803743D1*
X713076Y799946D1*
X721753Y797121D1*
X730696Y795302D1*
X739789Y794514D1*
X748911Y794769D1*
X757945Y796062D1*
X766773Y798375D1*
X775280Y801680D1*
X783354Y805933D1*
X790891Y811080D1*
X797791Y817051D1*
X803967Y823770D1*
X809337Y831150D1*
X813829Y839093D1*
X817388Y847497D1*
X819966Y856252D1*
X821528Y865243D1*
X822055Y874409D1*
X821541Y883466D1*
X820050Y892190D1*
X866542Y938673D1*
X1282290Y938675D1*
X1277325Y934852D1*
X1270777Y928496D1*
X1264995Y921436D1*
X1260055Y913761D1*
X1256022Y905575D1*
X1252950Y896982D1*
X1250877Y888093D1*
X1249831Y879028D1*
X1249824Y869902D1*
X1250858Y860835D1*
X1252919Y851944D1*
X1255980Y843346D1*
X1260001Y835154D1*
X1264929Y827472D1*
X1270702Y820404D1*
X1277241Y814039D1*
X1284465Y808462D1*
X1292277Y803743D1*
X1300576Y799946D1*
X1309253Y797121D1*
X1318196Y795302D1*
X1327289Y794514D1*
X1336411Y794769D1*
X1345445Y796062D1*
X1354273Y798375D1*
X1362780Y801680D1*
X1370854Y805933D1*
X1378391Y811080D1*
X1385291Y817051D1*
X1391467Y823770D1*
X1396837Y831150D1*
X1401329Y839093D1*
X1404888Y847497D1*
X1407466Y856252D1*
X1409028Y865243D1*
X1409555Y874409D1*
X1409041Y883466D1*
X1407552Y892193D1*
X1416541Y901173D1*
X1841948Y901169D1*
X1840450Y896982D1*
X1838377Y888093D1*
X1837331Y879028D1*
X1837324Y869902D1*
X1838358Y860835D1*
X1840419Y851944D1*
X1843480Y843346D1*
X1847501Y835154D1*
X1852429Y827472D1*
X1858202Y820404D1*
X1864741Y814039D1*
X1871965Y808462D1*
X1879777Y803743D1*
X1888076Y799946D1*
X1896753Y797121D1*
X1905696Y795302D1*
X1914789Y794514D1*
X1923911Y794769D1*
X1932945Y796062D1*
X1941773Y798375D1*
X1950280Y801680D1*
X1958354Y805933D1*
X1965891Y811080D1*
X1972791Y817051D1*
X1978967Y823770D1*
X1984337Y831150D1*
X1988829Y839093D1*
X1992388Y847497D1*
X1994966Y856252D1*
X1996255Y863672D1*
X2543701Y863673D1*
X2548685Y863966D1*
X2557622Y866016D1*
X2565911Y869933D1*
X2573173Y875543D1*
X2588591Y890948D1*
X2686322Y988673D1*
X2727000Y988676D1*
X2734143Y985420D1*
X2743092Y983256D1*
X2752290Y982824D1*
X2761403Y984142D1*
X2770102Y987159D1*
X2773425Y989081D1*
X2772723Y986512D1*
X2771554Y977409D1*
X2771545Y954243D1*
X2771554Y899812D1*
X2757962D1*
Y787592D1*
X2870182D1*
Y899812D1*
X2856600Y899807D1*
X2856596Y958953D1*
X2881496Y983854D1*
Y919685D1*
X2893701Y919686D1*
X2893705Y456201D1*
X2555638Y456202D1*
X2558033Y459294D1*
X2562491Y467207D1*
X2565748Y475685D1*
X2567736Y484547D1*
X2568413Y493701D1*
X2567764Y502664D1*
X2565803Y511533D1*
X2562572Y520021D1*
X2558139Y527948D1*
X2552598Y535146D1*
X2546070Y541459D1*
X2538692Y546755D1*
X2530621Y550920D1*
X2522029Y553866D1*
X2513100Y555530D1*
X2504025Y555875D1*
X2494995Y554896D1*
X2486205Y552612D1*
X2477840Y549072D1*
X2470080Y544353D1*
X2463089Y538554D1*
X2457018Y531799D1*
X2451995Y524232D1*
X2448127Y516014D1*
X2445497Y507322D1*
X2444161Y498337D1*
X2444147Y489255D1*
X2445455Y480268D1*
X2448059Y471566D1*
X2451902Y463336D1*
X2456604Y456206D1*
X2363651Y456201D1*
X2121071D1*
X2121072Y456488D1*
X2127665D1*
Y580913D1*
X2003240D1*
Y567954D1*
X1997944Y571755D1*
X1989873Y575920D1*
X1981281Y578866D1*
X1972352Y580530D1*
X1963277Y580875D1*
X1954247Y579896D1*
X1945457Y577612D1*
X1937092Y574072D1*
X1929332Y569353D1*
X1922341Y563554D1*
X1916270Y556799D1*
X1911247Y549232D1*
X1907379Y541014D1*
X1904749Y532322D1*
X1903413Y523337D1*
X1903399Y514255D1*
X1904707Y505268D1*
X1907311Y496566D1*
X1907501Y496071D1*
X1877665Y496073D1*
Y580913D1*
X1753240D1*
Y567954D1*
X1747944Y571755D1*
X1739873Y575920D1*
X1731281Y578866D1*
X1722352Y580530D1*
X1713277Y580875D1*
X1704247Y579896D1*
X1695457Y577612D1*
X1687092Y574072D1*
X1679332Y569353D1*
X1672341Y563554D1*
X1666270Y556799D1*
X1661247Y549232D1*
X1657379Y541014D1*
X1654749Y532322D1*
X1653413Y523337D1*
X1653399Y514255D1*
X1654707Y505268D1*
X1657311Y496566D1*
X1657496Y496071D1*
X1627665Y496073D1*
Y580913D1*
X1503240D1*
Y567954D1*
X1497944Y571755D1*
X1489873Y575920D1*
X1481281Y578866D1*
X1472352Y580530D1*
X1463277Y580875D1*
X1454247Y579896D1*
X1445457Y577612D1*
X1437092Y574072D1*
X1429332Y569353D1*
X1422341Y563554D1*
X1416270Y556799D1*
X1411247Y549232D1*
X1407379Y541014D1*
X1404749Y532322D1*
X1403413Y523337D1*
X1403399Y514255D1*
X1404707Y505268D1*
X1407311Y496566D1*
X1407510Y496071D1*
X1377665Y496075D1*
Y580913D1*
X1253240D1*
Y567954D1*
X1247944Y571755D1*
X1239873Y575920D1*
X1231281Y578866D1*
X1222352Y580530D1*
X1213277Y580875D1*
X1204247Y579896D1*
X1195457Y577612D1*
X1187092Y574072D1*
X1179332Y569353D1*
X1172341Y563554D1*
X1166270Y556799D1*
X1161247Y549232D1*
X1157379Y541014D1*
X1154749Y532322D1*
X1153413Y523337D1*
X1153399Y514255D1*
X1154707Y505268D1*
X1157311Y496566D1*
X1157505Y496071D1*
X1127665Y496075D1*
Y580913D1*
X1003240D1*
Y567954D1*
X997944Y571755D1*
X989873Y575920D1*
X981281Y578866D1*
X972352Y580530D1*
X963277Y580875D1*
X954247Y579896D1*
X945457Y577612D1*
X937092Y574072D1*
X929332Y569353D1*
X922341Y563554D1*
X916270Y556799D1*
X911247Y549232D1*
X907379Y541014D1*
X904749Y532322D1*
X903413Y523337D1*
X903399Y514255D1*
X904707Y505268D1*
X907311Y496566D1*
X911154Y488336D1*
X916154Y480755D1*
X922203Y473980D1*
X929176Y468160D1*
X936921Y463416D1*
X945274Y459852D1*
X954059Y457541D1*
X963085Y456533D1*
X972161Y456850D1*
X981096Y458487D1*
X989696Y461407D1*
X997780Y465547D1*
X1003240Y469272D1*
Y456488D1*
X1015411D1*
X1015508Y456201D1*
X589528Y456194D1*
X591877Y459430D1*
X596558Y467403D1*
X600449Y475789D1*
X603510Y484512D1*
X605718Y493490D1*
X607047Y502639D1*
X607488Y511873D1*
X607035Y521108D1*
X605694Y530255D1*
X603475Y539230D1*
X600402Y547948D1*
X596500Y556329D1*
X591808Y564295D1*
X586369Y571772D1*
X580234Y578688D1*
X573461Y584979D1*
X566110Y590587D1*
X558255Y595461D1*
X549965Y599552D1*
X541318Y602824D1*
X532396Y605248D1*
X523282Y606798D1*
X514060Y607462D1*
X504819Y607232D1*
X495642Y606112D1*
X486615Y604112D1*
X477825Y601248D1*
X469352Y597551D1*
X461276Y593052D1*
X456202Y589547D1*
X456197Y1053207D1*
X464180Y1052395D1*
X473274Y1052689D1*
X482249Y1054192D1*
X490944Y1056877D1*
X499202Y1060698D1*
X506877Y1065585D1*
X513833Y1071451D1*
X519945Y1078193D1*
X525104Y1085689D1*
X529217Y1093806D1*
X532213Y1102399D1*
X534035Y1111314D1*
X534654Y1120472D1*
X534056Y1129472D1*
X532255Y1138392D1*
X529280Y1146991D1*
X525185Y1155118D1*
X520045Y1162626D1*
X513948Y1169382D1*
X507007Y1175265D1*
X499343Y1180171D1*
X491092Y1184010D1*
X482404Y1186717D1*
X473433Y1188240D1*
X464339Y1188555D1*
X456196Y1187745D1*
X456201Y1266551D1*
X456197Y1906201D1*
X2893701Y1906196D1*
Y1781583D1*
X2892944Y1782022D1*
X2884476Y1785253D1*
X2875602Y1787084D1*
X2866549Y1787467D1*
X2857550Y1786392D1*
X2848841Y1783890D1*
X2848161Y1783568D1*
X2847335Y1783571D1*
X2843699Y1786146D1*
X2835822Y1790848D1*
X2827243Y1794104D1*
X2818220Y1795811D1*
X2812995Y1796071D1*
X2308571Y1796068D1*
X2308573Y1798427D1*
X2309573Y1800761D1*
X2311760Y1809555D1*
X2312508Y1818701D1*
X2311797Y1827619D1*
X2309647Y1836423D1*
X2306112Y1844766D1*
X2301283Y1852434D1*
X2295289Y1859230D1*
X2288281Y1864975D1*
X2280444Y1869522D1*
X2271976Y1872753D1*
X2263102Y1874584D1*
X2254049Y1874967D1*
X2245050Y1873892D1*
X2236341Y1871390D1*
X2228147Y1867521D1*
X2220678Y1862388D1*
X2214131Y1856125D1*
X2208672Y1848892D1*
X2204445Y1840877D1*
X2201558Y1832287D1*
X2200085Y1823346D1*
X2200067Y1814285D1*
X2201503Y1805337D1*
X2203828Y1798324D1*
X2203835Y1796071D1*
X2168701D1*
X2160378Y1795406D1*
X2151483Y1793160D1*
X2143115Y1789396D1*
X2135528Y1784223D1*
X2131651Y1780713D1*
X1997004Y1646071D1*
X1820133Y1646070D1*
X1911280Y1737219D1*
X1918703Y1736803D1*
X1927873Y1737319D1*
X1936928Y1738857D1*
X1945752Y1741400D1*
X1954238Y1744915D1*
X1962276Y1749357D1*
X1969765Y1754672D1*
X1976613Y1760793D1*
X1982732Y1767640D1*
X1988047Y1775131D1*
X1992490Y1783169D1*
X1996004Y1791654D1*
X1998546Y1800479D1*
X2000084Y1809534D1*
X2000598Y1818703D1*
X2000083Y1827873D1*
X1998545Y1836928D1*
X1996001Y1845752D1*
X1992487Y1854238D1*
X1988045Y1862276D1*
X1982730Y1869765D1*
X1976609Y1876613D1*
X1969761Y1882732D1*
X1962270Y1888047D1*
X1954232Y1892490D1*
X1945748Y1896004D1*
X1936923Y1898546D1*
X1927867Y1900084D1*
X1918698Y1900598D1*
X1909529Y1900083D1*
X1900474Y1898545D1*
X1891650Y1896001D1*
X1883164Y1892487D1*
X1875126Y1888045D1*
X1867636Y1882730D1*
X1860789Y1876609D1*
X1854669Y1869761D1*
X1849354Y1862270D1*
X1844912Y1854232D1*
X1841398Y1845748D1*
X1838856Y1836923D1*
X1837318Y1827867D1*
X1836803Y1818698D1*
X1837220Y1811274D1*
X1796873Y1770936D1*
X1734514Y1708571D1*
X1563883D1*
X1559476Y1710253D1*
X1550602Y1712084D1*
X1541549Y1712467D1*
X1532550Y1711392D1*
X1523841Y1708890D1*
X1515647Y1705021D1*
X1508178Y1699888D1*
X1501631Y1693625D1*
X1497244Y1687812D1*
X1474509Y1710535D1*
X1448773Y1736273D1*
X1445041Y1739589D1*
X1437273Y1744459D1*
X1428640Y1747551D1*
X1419538Y1748719D1*
X1393232Y1748728D1*
X1098815Y1748730D1*
X1061273Y1786273D1*
X1057541Y1789589D1*
X1049773Y1794459D1*
X1041140Y1797550D1*
X1032038Y1798719D1*
X1028961Y1798728D1*
X1026224Y1800301D1*
X1017517Y1803294D1*
X1008399Y1804584D1*
X999203Y1804126D1*
X990260Y1801936D1*
X981892Y1798092D1*
X974404Y1792735D1*
X968064Y1786056D1*
X963104Y1778301D1*
X959699Y1769744D1*
X957978Y1760699D1*
X957997Y1751492D1*
X959760Y1742454D1*
X963201Y1733913D1*
X968196Y1726178D1*
X974564Y1719529D1*
X979984Y1715472D1*
X974457Y1711530D1*
X968108Y1704862D1*
X963135Y1697112D1*
X959719Y1688562D1*
X958535Y1683571D1*
X788197Y1683580D1*
Y1806049D1*
X788677Y1806983D1*
X791265Y1815820D1*
X792134Y1824987D1*
X791252Y1834152D1*
X788651Y1842986D1*
X784427Y1851167D1*
X778730Y1858400D1*
X771766Y1864424D1*
X763789Y1869022D1*
X755085Y1872028D1*
X745970Y1873331D1*
X736773Y1872887D1*
X727827Y1870709D1*
X719454Y1866878D1*
X711957Y1861531D1*
X705608Y1854864D1*
X700635Y1847113D1*
X697219Y1838563D1*
X695484Y1829520D1*
X695491Y1820312D1*
X697240Y1811273D1*
X699205Y1805819D1*
Y1658671D1*
X698626Y1657862D1*
X694664Y1649588D1*
X692209Y1640748D1*
X691709Y1637470D1*
X688395Y1643432D1*
X682395Y1650409D1*
X675114Y1656037D1*
X666849Y1660084D1*
X657940Y1662385D1*
X648748Y1662844D1*
X639654Y1661444D1*
X631026Y1658241D1*
X623220Y1653369D1*
X616555Y1647024D1*
X611303Y1639467D1*
X607680Y1631008D1*
X605833Y1621993D1*
X605840Y1612791D1*
X607699Y1603778D1*
X611333Y1595324D1*
X616596Y1587774D1*
X623270Y1581440D1*
X631083Y1576577D1*
X639715Y1573387D1*
X648812Y1572000D1*
X658003Y1572472D1*
X666909Y1574785D1*
X675168Y1578844D1*
X682441Y1584482D1*
X688430Y1591469D1*
X692891Y1599517D1*
X695639Y1608299D1*
X695812Y1610001D1*
X695976Y1610115D1*
X698210Y1605255D1*
X703436Y1597714D1*
X709898Y1591202D1*
X717396Y1585916D1*
X725702Y1582021D1*
X734562Y1579634D1*
X743860Y1578831D1*
X1056201D1*
X1064524Y1579496D1*
X1073419Y1581741D1*
X1081786Y1585505D1*
X1089367Y1590672D1*
X1095932Y1597081D1*
X1101276Y1604539D1*
X1105238Y1612814D1*
X1107693Y1621654D1*
X1108570Y1630786D1*
X1108547Y1632423D1*
X1382328Y1632429D1*
X1576110Y1438648D1*
X1580530Y1434794D1*
X1588394Y1430080D1*
X1597085Y1427161D1*
X1606201Y1426173D1*
X1864000Y1426177D1*
X1858277Y1420622D1*
X1852495Y1413562D1*
X1847555Y1405887D1*
X1843522Y1397701D1*
X1840450Y1389108D1*
X1838377Y1380219D1*
X1837331Y1371154D1*
X1837324Y1362028D1*
X1838358Y1352961D1*
X1840419Y1344070D1*
X1843480Y1335472D1*
X1847501Y1327280D1*
X1852429Y1319598D1*
X1858202Y1312530D1*
X1864741Y1306165D1*
X1871965Y1300588D1*
X1879777Y1295869D1*
X1888076Y1292072D1*
X1896753Y1289247D1*
X1905696Y1287428D1*
X1914789Y1286640D1*
X1923911Y1286895D1*
X1932945Y1288188D1*
X1941773Y1290501D1*
X1950280Y1293806D1*
X1958354Y1298059D1*
X1965891Y1303206D1*
X1972791Y1309177D1*
X1978967Y1315896D1*
X1984337Y1323276D1*
X1988829Y1331219D1*
X1992388Y1339623D1*
X1994966Y1348378D1*
X1996528Y1357369D1*
X1997055Y1366535D1*
X1996541Y1375592D1*
X1994991Y1384585D1*
X1992425Y1393344D1*
X1988879Y1401752D1*
X1984396Y1409702D1*
X1979038Y1417089D1*
X1972871Y1423816D1*
X1970159Y1426171D1*
X2270545Y1426172D1*
X2268108Y1423613D1*
X2263135Y1415862D1*
X2259719Y1407312D1*
X2258741Y1403398D1*
X2252827Y1401958D1*
X2244454Y1398127D1*
X2236957Y1392781D1*
X2230608Y1386113D1*
X2225635Y1378362D1*
X2222219Y1369812D1*
X2220484Y1360769D1*
X2220491Y1351562D1*
X2222240Y1342522D1*
X2225668Y1333976D1*
X2230652Y1326234D1*
X2237010Y1319575D1*
X2244514Y1314239D1*
X2252894Y1310420D1*
X2261843Y1308256D1*
X2271041Y1307824D1*
X2280154Y1309142D1*
X2288853Y1312159D1*
X2291886Y1313673D1*
X2795751Y1313676D1*
X2802894Y1310420D1*
X2811843Y1308256D1*
X2821041Y1307824D1*
X2830154Y1309142D1*
X2838853Y1312159D1*
X2846823Y1316769D1*
X2853778Y1322803D1*
X2859465Y1330046D1*
X2863677Y1338232D1*
X2866265Y1347070D1*
X2867134Y1356236D1*
X2866252Y1365402D1*
X2863651Y1374235D1*
X2859427Y1382416D1*
X2853730Y1389650D1*
X2846766Y1395673D1*
X2838789Y1400272D1*
X2830085Y1403277D1*
X2820970Y1404580D1*
X2811773Y1404136D1*
X2803811Y1402283D1*
X2803752Y1402902D1*
X2801151Y1411735D1*
X2796927Y1419916D1*
X2791230Y1427150D1*
X2784266Y1433173D1*
X2776289Y1437772D1*
X2767585Y1440777D1*
X2758470Y1442080D1*
X2749273Y1441636D1*
X2740327Y1439458D1*
X2733024Y1436228D1*
X2679154Y1436222D1*
X2678752Y1440402D1*
X2676151Y1449235D1*
X2671927Y1457416D1*
X2666230Y1464650D1*
X2659266Y1470673D1*
X2651289Y1475272D1*
X2642585Y1478277D1*
X2633470Y1479580D1*
X2624273Y1479136D1*
X2615327Y1476958D1*
X2608026Y1473728D1*
X2566654Y1473722D1*
X2566252Y1477902D1*
X2563651Y1486735D1*
X2559427Y1494916D1*
X2553730Y1502150D1*
X2546766Y1508173D1*
X2538789Y1512772D1*
X2530085Y1515777D1*
X2520970Y1517080D1*
X2515218Y1517003D1*
X2513651Y1522325D1*
X2509427Y1530507D1*
X2503730Y1537740D1*
X2497385Y1543228D1*
X2497371Y1543337D1*
X2501177Y1550732D1*
X2503765Y1559570D1*
X2504634Y1568736D1*
X2503752Y1577902D1*
X2501151Y1586735D1*
X2496927Y1594916D1*
X2491230Y1602150D1*
X2484266Y1608173D1*
X2476289Y1612772D1*
X2467585Y1615777D1*
X2458470Y1617080D1*
X2449273Y1616636D1*
X2440327Y1614458D1*
X2433028Y1611228D1*
X2228961Y1611231D1*
X2226289Y1612772D1*
X2217585Y1615777D1*
X2208470Y1617080D1*
X2199273Y1616636D1*
X2190327Y1614458D1*
X2181954Y1610627D1*
X2174457Y1605281D1*
X2168108Y1598613D1*
X2163135Y1590862D1*
X2159719Y1582312D1*
X2157984Y1573269D1*
X2157991Y1564062D1*
X2159740Y1555022D1*
X2162268Y1548720D1*
X2142354Y1548728D1*
X2045530D1*
X2048701Y1550776D1*
X2055732Y1556669D1*
X2190386Y1691331D1*
X2785669D1*
X2791719Y1691202D1*
X2799218Y1685916D1*
X2807525Y1682021D1*
X2816383Y1679634D1*
X2825524Y1678831D1*
X2848123Y1678833D1*
X2848627Y1678593D1*
X2857325Y1676055D1*
X2866319Y1674944D1*
X2875374Y1675290D1*
X2881490Y1676526D1*
X2881496Y1645407D1*
X2881497Y1216047D1*
X2861290Y1236255D1*
X2856871Y1240108D1*
X2849008Y1244822D1*
X2840316Y1247740D1*
X2831201Y1248728D1*
X2766461Y1248731D1*
X2763789Y1250272D1*
X2755085Y1253277D1*
X2745970Y1254580D1*
X2736773Y1254136D1*
X2727827Y1251958D1*
X2719454Y1248127D1*
X2711957Y1242781D1*
X2705608Y1236113D1*
X2700635Y1228362D1*
X2697219Y1219812D1*
X2695484Y1210769D1*
X2695491Y1201562D1*
X2697240Y1192522D1*
X2700668Y1183976D1*
X2705652Y1176234D1*
X2712010Y1169575D1*
X2719514Y1164239D1*
X2727894Y1160420D1*
X2736843Y1158256D1*
X2746041Y1157824D1*
X2755154Y1159142D1*
X2763853Y1162159D1*
X2766875Y1163673D1*
X2813587Y1163672D1*
X2823356Y1153912D1*
X2815327Y1151958D1*
X2808270Y1148730D1*
X2643728Y1148728D1*
X2637886Y1148328D1*
X762427Y580913D2*
X877665D1*
Y456488D1*
X753240D1*
Y469272D1*
X747780Y465547D1*
X739696Y461407D1*
X731096Y458487D1*
X722161Y456850D1*
X713085Y456533D1*
X704059Y457541D1*
X695274Y459852D1*
X686921Y463416D1*
X679176Y468160D1*
X672203Y473980D1*
X666154Y480755D1*
X661154Y488336D1*
X657311Y496566D1*
X654707Y505268D1*
X653399Y514255D1*
X653413Y523337D1*
X654749Y532322D1*
X657379Y541014D1*
X661247Y549232D1*
X666270Y556799D1*
X672341Y563554D1*
X679332Y569353D1*
X687092Y574072D1*
X695457Y577612D1*
X704247Y579896D1*
X713277Y580875D1*
X722352Y580530D1*
X731281Y578866D1*
X739873Y575920D1*
X747944Y571755D1*
X753240Y567954D1*
Y580913D1*
X762427D1*
X695634Y1835858D2*
X692885Y1827076D1*
X688425Y1819028D1*
X682436Y1812041D1*
X675163Y1806403D1*
X666903Y1802344D1*
X657996Y1800031D1*
X648806Y1799559D1*
X639709Y1800946D1*
X631077Y1804136D1*
X623264Y1808999D1*
X616591Y1815333D1*
X611328Y1822883D1*
X607693Y1831337D1*
X605835Y1840350D1*
X605828Y1849552D1*
X607675Y1858567D1*
X611297Y1867026D1*
X616549Y1874583D1*
X623214Y1880928D1*
X631020Y1885801D1*
X639647Y1889003D1*
X648743Y1890403D1*
X657933Y1889944D1*
X666844Y1887643D1*
X675109Y1883596D1*
X682390Y1877969D1*
X688388Y1870991D1*
X692860Y1862948D1*
X695621Y1854169D1*
X696558Y1844983D1*
X695634Y1835858D1*
X821528Y1357369D2*
X819966Y1348378D1*
X817388Y1339623D1*
X813829Y1331219D1*
X809337Y1323276D1*
X803967Y1315896D1*
X797791Y1309177D1*
X790891Y1303206D1*
X783354Y1298059D1*
X775280Y1293806D1*
X766773Y1290501D1*
X757945Y1288188D1*
X748911Y1286895D1*
X739789Y1286640D1*
X730696Y1287428D1*
X721753Y1289247D1*
X713076Y1292072D1*
X704777Y1295869D1*
X696965Y1300588D1*
X689741Y1306165D1*
X683202Y1312530D1*
X677429Y1319598D1*
X672501Y1327280D1*
X668480Y1335472D1*
X665419Y1344070D1*
X663358Y1352961D1*
X662324Y1362028D1*
X662331Y1371154D1*
X663377Y1380219D1*
X665450Y1389108D1*
X668522Y1397701D1*
X672555Y1405887D1*
X677495Y1413562D1*
X683277Y1420622D1*
X689825Y1426978D1*
X697056Y1432546D1*
X704874Y1437253D1*
X713178Y1441038D1*
X721860Y1443853D1*
X730806Y1445659D1*
X739899Y1446433D1*
X749021Y1446167D1*
X758054Y1444862D1*
X766878Y1442535D1*
X775381Y1439219D1*
X783449Y1434954D1*
X790978Y1429798D1*
X797871Y1423816D1*
X804038Y1417089D1*
X809396Y1409702D1*
X813879Y1401752D1*
X817425Y1393344D1*
X819991Y1384585D1*
X821541Y1375592D1*
X822055Y1366535D1*
X821528Y1357369D1*
X888366Y1111314D2*
X886543Y1102399D1*
X883547Y1093806D1*
X879434Y1085689D1*
X874276Y1078193D1*
X868164Y1071451D1*
X861207Y1065585D1*
X853533Y1060698D1*
X845274Y1056877D1*
X836580Y1054192D1*
X827605Y1052689D1*
X818510Y1052395D1*
X809457Y1053316D1*
X800608Y1055437D1*
X792121Y1058717D1*
X784146Y1063100D1*
X776827Y1068505D1*
X770293Y1074839D1*
X764661Y1081987D1*
X760033Y1089822D1*
X756491Y1098203D1*
X754097Y1106983D1*
X752895Y1116003D1*
X752906Y1125102D1*
X754129Y1134119D1*
X756543Y1142892D1*
X760105Y1151266D1*
X764752Y1159089D1*
X770400Y1166224D1*
X776949Y1172542D1*
X784281Y1177932D1*
X792265Y1182295D1*
X800761Y1185556D1*
X809615Y1187655D1*
X818669Y1188555D1*
X827764Y1188240D1*
X836735Y1186717D1*
X845423Y1184010D1*
X853673Y1180171D1*
X861337Y1175265D1*
X868278Y1169382D1*
X874375Y1162626D1*
X879516Y1155118D1*
X883610Y1146991D1*
X886585Y1138392D1*
X888387Y1129472D1*
X888984Y1120472D1*
X888366Y1111314D1*
X1409028Y1357369D2*
X1407466Y1348378D1*
X1404888Y1339623D1*
X1401329Y1331219D1*
X1396837Y1323276D1*
X1391467Y1315896D1*
X1385291Y1309177D1*
X1378391Y1303206D1*
X1370854Y1298059D1*
X1362780Y1293806D1*
X1354273Y1290501D1*
X1345445Y1288188D1*
X1336411Y1286895D1*
X1327289Y1286640D1*
X1318196Y1287428D1*
X1309253Y1289247D1*
X1300576Y1292072D1*
X1292277Y1295869D1*
X1284465Y1300588D1*
X1277241Y1306165D1*
X1270702Y1312530D1*
X1264929Y1319598D1*
X1260001Y1327280D1*
X1255980Y1335472D1*
X1252919Y1344070D1*
X1250858Y1352961D1*
X1249824Y1362028D1*
X1249831Y1371154D1*
X1250877Y1380219D1*
X1252950Y1389108D1*
X1256022Y1397701D1*
X1260055Y1405887D1*
X1264995Y1413562D1*
X1270777Y1420622D1*
X1277325Y1426978D1*
X1284556Y1432546D1*
X1292374Y1437253D1*
X1300678Y1441038D1*
X1309360Y1443853D1*
X1318306Y1445659D1*
X1327399Y1446433D1*
X1336521Y1446167D1*
X1345554Y1444862D1*
X1354378Y1442535D1*
X1362881Y1439219D1*
X1370949Y1434954D1*
X1378478Y1429798D1*
X1385371Y1423816D1*
X1391538Y1417089D1*
X1396896Y1409702D1*
X1401379Y1401752D1*
X1404925Y1393344D1*
X1407491Y1384585D1*
X1409041Y1375592D1*
X1409555Y1366535D1*
X1409028Y1357369D1*
X1475866Y1111314D2*
X1474043Y1102399D1*
X1471047Y1093806D1*
X1466934Y1085689D1*
X1461776Y1078193D1*
X1455664Y1071451D1*
X1448707Y1065585D1*
X1441033Y1060698D1*
X1432774Y1056877D1*
X1424080Y1054192D1*
X1415105Y1052689D1*
X1406010Y1052395D1*
X1396957Y1053316D1*
X1388108Y1055437D1*
X1379621Y1058717D1*
X1371646Y1063100D1*
X1364327Y1068505D1*
X1357793Y1074839D1*
X1352161Y1081987D1*
X1347533Y1089822D1*
X1343991Y1098203D1*
X1341597Y1106983D1*
X1340395Y1116003D1*
X1340406Y1125102D1*
X1341629Y1134119D1*
X1344043Y1142892D1*
X1347605Y1151266D1*
X1352252Y1159089D1*
X1357900Y1166224D1*
X1364449Y1172542D1*
X1371781Y1177932D1*
X1379765Y1182295D1*
X1388261Y1185556D1*
X1397115Y1187655D1*
X1406169Y1188555D1*
X1415264Y1188240D1*
X1424235Y1186717D1*
X1432923Y1184010D1*
X1441173Y1180171D1*
X1448837Y1175265D1*
X1455778Y1169382D1*
X1461875Y1162626D1*
X1467016Y1155118D1*
X1471110Y1146991D1*
X1474085Y1138392D1*
X1475887Y1129472D1*
X1476484Y1120472D1*
X1475866Y1111314D1*
X1121535D2*
X1119713Y1102399D1*
X1116717Y1093806D1*
X1112604Y1085689D1*
X1107445Y1078193D1*
X1101333Y1071451D1*
X1094377Y1065585D1*
X1086702Y1060698D1*
X1078444Y1056877D1*
X1069749Y1054192D1*
X1060774Y1052689D1*
X1051680Y1052395D1*
X1042626Y1053316D1*
X1033777Y1055437D1*
X1025290Y1058717D1*
X1017315Y1063100D1*
X1009996Y1068505D1*
X1003462Y1074839D1*
X997831Y1081987D1*
X993202Y1089822D1*
X989660Y1098203D1*
X987266Y1106983D1*
X986064Y1116003D1*
X986075Y1125102D1*
X987298Y1134119D1*
X989713Y1142892D1*
X993274Y1151266D1*
X997921Y1159089D1*
X1003570Y1166224D1*
X1010118Y1172542D1*
X1017450Y1177932D1*
X1025434Y1182295D1*
X1033930Y1185556D1*
X1042785Y1187655D1*
X1051839Y1188555D1*
X1060933Y1188240D1*
X1069904Y1186717D1*
X1078592Y1184010D1*
X1086843Y1180171D1*
X1094507Y1175265D1*
X1101448Y1169382D1*
X1107545Y1162626D1*
X1112685Y1155118D1*
X1116780Y1146991D1*
X1119755Y1138392D1*
X1121556Y1129472D1*
X1122154Y1120472D1*
X1121535Y1111314D1*
X2063366D2*
X2061543Y1102399D1*
X2058547Y1093806D1*
X2054434Y1085689D1*
X2049276Y1078193D1*
X2043164Y1071451D1*
X2036207Y1065585D1*
X2028533Y1060698D1*
X2020274Y1056877D1*
X2011580Y1054192D1*
X2002605Y1052689D1*
X1993510Y1052395D1*
X1984457Y1053316D1*
X1975608Y1055437D1*
X1967121Y1058717D1*
X1959146Y1063100D1*
X1951827Y1068505D1*
X1945293Y1074839D1*
X1939661Y1081987D1*
X1935033Y1089822D1*
X1931491Y1098203D1*
X1929097Y1106983D1*
X1927895Y1116003D1*
X1927906Y1125102D1*
X1929129Y1134119D1*
X1931543Y1142892D1*
X1935105Y1151266D1*
X1939752Y1159089D1*
X1945400Y1166224D1*
X1951949Y1172542D1*
X1959281Y1177932D1*
X1967265Y1182295D1*
X1975761Y1185556D1*
X1984615Y1187655D1*
X1993669Y1188555D1*
X2002764Y1188240D1*
X2011735Y1186717D1*
X2020423Y1184010D1*
X2028673Y1180171D1*
X2036337Y1175265D1*
X2043278Y1169382D1*
X2049375Y1162626D1*
X2054516Y1155118D1*
X2058610Y1146991D1*
X2061585Y1138392D1*
X2063387Y1129472D1*
X2063984Y1120472D1*
X2063366Y1111314D1*
X1709035D2*
X1707213Y1102399D1*
X1704217Y1093806D1*
X1700104Y1085689D1*
X1694945Y1078193D1*
X1688833Y1071451D1*
X1681877Y1065585D1*
X1674202Y1060698D1*
X1665944Y1056877D1*
X1657249Y1054192D1*
X1648274Y1052689D1*
X1639180Y1052395D1*
X1630126Y1053316D1*
X1621277Y1055437D1*
X1612790Y1058717D1*
X1604815Y1063100D1*
X1597496Y1068505D1*
X1590962Y1074839D1*
X1585331Y1081987D1*
X1580702Y1089822D1*
X1577160Y1098203D1*
X1574766Y1106983D1*
X1573564Y1116003D1*
X1573575Y1125102D1*
X1574798Y1134119D1*
X1577213Y1142892D1*
X1580774Y1151266D1*
X1585421Y1159089D1*
X1591070Y1166224D1*
X1597618Y1172542D1*
X1604950Y1177932D1*
X1612934Y1182295D1*
X1621430Y1185556D1*
X1630285Y1187655D1*
X1639339Y1188555D1*
X1648433Y1188240D1*
X1657404Y1186717D1*
X1666092Y1184010D1*
X1674343Y1180171D1*
X1682007Y1175265D1*
X1688948Y1169382D1*
X1695045Y1162626D1*
X1700185Y1155118D1*
X1704280Y1146991D1*
X1707255Y1138392D1*
X1709056Y1129472D1*
X1709654Y1120472D1*
X1709035Y1111314D1*
X2869437Y634556D2*
X2867177Y625570D1*
X2863469Y617077D1*
X2858412Y609311D1*
X2852147Y602483D1*
X2844844Y596778D1*
X2836701Y592354D1*
X2827941Y589331D1*
X2818802Y587791D1*
X2809535Y587776D1*
X2800392Y589286D1*
X2791622Y592281D1*
X2783465Y596678D1*
X2776142Y602358D1*
X2769854Y609167D1*
X2764773Y616916D1*
X2761037Y625396D1*
X2758748Y634377D1*
X2757967Y643610D1*
X2758718Y652848D1*
X2758995Y654370D1*
X2757623Y653013D1*
X2750592Y647295D1*
X2742735Y642781D1*
X2734256Y639585D1*
X2725374Y637790D1*
X2716319Y637444D1*
X2707325Y638555D1*
X2698627Y641093D1*
X2698123Y641333D1*
X2089388Y641331D1*
X2084256Y639585D1*
X2075374Y637790D1*
X2066319Y637444D1*
X2057325Y638555D1*
X2048627Y641093D1*
X2048123Y641333D1*
X1839381Y641331D1*
X1834256Y639585D1*
X1825374Y637790D1*
X1816319Y637444D1*
X1807325Y638555D1*
X1798627Y641093D1*
X1798123Y641333D1*
X1576892Y641331D1*
X1571756Y639585D1*
X1562874Y637790D1*
X1553819Y637444D1*
X1544825Y638555D1*
X1536127Y641093D1*
X1535623Y641333D1*
X1314392Y641331D1*
X1309256Y639585D1*
X1300374Y637790D1*
X1291319Y637444D1*
X1282325Y638555D1*
X1273627Y641093D1*
X1273123Y641333D1*
X801879Y641331D1*
X796756Y639585D1*
X787874Y637790D1*
X778819Y637444D1*
X769825Y638555D1*
X761127Y641093D1*
X752948Y644995D1*
X745501Y650157D1*
X738978Y656449D1*
X733550Y663703D1*
X729354Y671736D1*
X726503Y680337D1*
X725067Y689285D1*
X725085Y698346D1*
X726558Y707287D1*
X729445Y715877D1*
X733672Y723892D1*
X739131Y731125D1*
X745678Y737388D1*
X753147Y742521D1*
X761341Y746390D1*
X770050Y748892D1*
X779049Y749967D1*
X788102Y749584D1*
X796976Y747753D1*
X801383Y746071D1*
X1273022D1*
X1273841Y746390D1*
X1282550Y748892D1*
X1291549Y749967D1*
X1300602Y749584D1*
X1309476Y747753D1*
X1313883Y746071D1*
X1535509D1*
X1536341Y746390D1*
X1545050Y748892D1*
X1554049Y749967D1*
X1563102Y749584D1*
X1571976Y747753D1*
X1576383Y746071D1*
X1798009D1*
X1798841Y746390D1*
X1807550Y748892D1*
X1816549Y749967D1*
X1825602Y749584D1*
X1834476Y747753D1*
X1838883Y746071D1*
X2048021D1*
X2048841Y746390D1*
X2057550Y748892D1*
X2066549Y749967D1*
X2075602Y749584D1*
X2084476Y747753D1*
X2088883Y746071D1*
X2698013D1*
X2698841Y746390D1*
X2707550Y748892D1*
X2716549Y749967D1*
X2725602Y749584D1*
X2734476Y747753D1*
X2742944Y744522D1*
X2750781Y739975D1*
X2757789Y734230D1*
X2763783Y727434D1*
X2768612Y719766D1*
X2772147Y711423D1*
X2774297Y702619D1*
X2775008Y693701D1*
X2774260Y684555D1*
X2773823Y682795D1*
X2775740Y684673D1*
X2777102Y685907D1*
X2784554Y691416D1*
X2792810Y695626D1*
X2801646Y698417D1*
X2810822Y699718D1*
X2820085Y699490D1*
X2829186Y697740D1*
X2837874Y694516D1*
X2845913Y689907D1*
X2853084Y684037D1*
X2859192Y677066D1*
X2864067Y669185D1*
X2867580Y660610D1*
X2869633Y651573D1*
X2870188Y643702D1*
X2869437Y634556D1*
D28*
X2406201Y493701D3*
D29*
X2506201D3*
D28*
X815453Y518701D3*
D29*
X715453D3*
D28*
X1065453D3*
D29*
X965453D3*
D28*
X1315453D3*
D29*
X1215453D3*
D28*
X1565453D3*
D29*
X1465453D3*
D28*
X1815453D3*
D29*
X1715453D3*
D28*
X2065453D3*
D29*
X1965453D3*
D33*
X658262Y1901282D3*
D35*
X493695Y1901278D3*
X493703Y1561121D3*
D33*
X658270Y1561125D3*
D36*
X1768701Y1818701D3*
X1918701D3*
D39*
X742126Y1366535D3*
Y874409D3*
X545276Y1366535D3*
Y874409D3*
X1329626Y1366535D3*
Y874409D3*
X1132776Y1366535D3*
Y874409D3*
X1917126Y1366535D3*
Y874409D3*
X1720276Y1366535D3*
Y874409D3*
D42*
X2669587Y1246752D3*
X2647933Y1225098D3*
X2604626D3*
X2669587Y1290059D3*
X2626280Y1246752D3*
X2647933Y1268406D3*
Y1311713D3*
X2626280Y1290059D3*
X2582972Y1246752D3*
Y1290059D3*
X2604626Y1268406D3*
Y1311713D3*
D43*
X2814072Y843702D3*
D44*
X2814078Y643702D3*
X2814075Y743702D3*
M02*
