M48
INCH
T01C0.0118
T02C0.0157
T03C0.0236
T04C0.0256
T05C0.0311
T06C0.035
T07C0.0394
T08C0.0709
T09C0.126
%
T01
X+026696Y+012468
X+026479Y+012251
X+026263Y+012468
X+026046Y+012251
X+025830Y+012468
X+026046Y+012684
X+025830Y+012901
X+026046Y+013117
X+026263Y+012901
X+026479Y+013117
X+026696Y+012901
X+026479Y+012684
T02
X+027500Y+010312
X+027875Y+010687
X+028312Y+011062
X+027437Y+012062
X+028187Y+013562
X+027562Y+013937
X+026312Y+014312
X+025187Y+014687
X+024687Y+015043
X+024562Y+015687
X+023437Y+014312
X+023062Y+013937
X+022687Y+013562
X+022062Y+015687
X+010562Y+016312
X+010062Y+016750
X+010062Y+017562
X+007437Y+018250
X+007437Y+016312
T03
X+006799Y+019013G85X+006366Y+019013
X+005094Y+019013G85X+004779Y+019013
X+005095Y+015611G85X+004780Y+015611
X+006799Y+015611G85X+006366Y+015611
X+007812Y+006937
X+012937Y+006937
X+015562Y+006937
X+018187Y+006937
X+020687Y+006937
X+021687Y+006187
X+026062Y+005687
X+027187Y+006937
X+028687Y+017312
X+022562Y+018187
X+016562Y+015937
X+015437Y+016562
T04
X+006386Y+016174
X+006386Y+018450
T05
X+028141Y+008437
X+028141Y+007437
X+028141Y+006437
T06
X+024062Y+004937
X+025062Y+004937
X+020655Y+005187
X+019655Y+005187
X+018155Y+005187
X+017155Y+005187
X+015655Y+005187
X+014655Y+005187
X+013155Y+005187
X+012155Y+005187
X+010655Y+005187
X+009655Y+005187
X+008155Y+005187
X+007155Y+005187
T07
X+017687Y+018187
X+019187Y+018187
X+019171Y+013665
X+017203Y+013665
X+013296Y+013665
X+011328Y+013665
X+007421Y+013665
X+005453Y+013665
X+005453Y+008744
X+007421Y+008744
X+011328Y+008744
X+013296Y+008744
X+017203Y+008744
X+019171Y+008744
T08
X+008209Y+011205
X+010540Y+011205
X+014084Y+011205
X+016415Y+011205
X+019959Y+011205
X+004665Y+011205
T09
X+005118Y+005118
X+030315Y+005118
X+030315Y+018504
T00
M30
