G04 DipTrace 5.1.0.2*
G04 TopSilk.gbr*
%MOIN*%
G04 #@! TF.FileFunction,Legend,Top*
G04 #@! TF.Part,Single*
%ADD10C,0.009843*%
%ADD13C,0.005*%
%ADD26C,0.005906*%
%ADD27C,0.004724*%
%ADD31C,0.007874*%
%ADD82C,0.003088*%
%ADD83C,0.00772*%
%ADD84C,0.004632*%
%ADD85C,0.006176*%
%ADD86C,0.009264*%
%FSLAX26Y26*%
G04*
G70*
G90*
G75*
G01*
G04 TopSilk*
%LPD*%
X2291634Y782579D2*
D26*
Y729823D1*
X2220768Y782579D2*
Y729823D1*
X1129134Y1820079D2*
Y1767323D1*
X1058268Y1820079D2*
Y1767323D1*
X1616634Y1820079D2*
Y1767323D1*
X1545768Y1820079D2*
Y1767323D1*
X2745080Y495768D2*
X2692324Y495767D1*
X2745078Y566634D2*
X2692322Y566633D1*
X2395080Y1833268D2*
X2342324Y1833267D1*
X2395078Y1904134D2*
X2342322Y1904133D1*
X1695079Y1545768D2*
X1642323D1*
X1695079Y1616634D2*
X1642323D1*
X1184350Y1523622D2*
D27*
Y1511024D1*
X1078051D1*
Y1523622D1*
X1184350Y1563780D2*
Y1576378D1*
X1078051D1*
Y1563780D1*
G36*
X1239862Y1543701D2*
X1239778Y1542416D1*
X1239527Y1541153D1*
X1239113Y1539934D1*
X1238544Y1538780D1*
X1237828Y1537709D1*
X1236979Y1536741D1*
X1236011Y1535892D1*
X1234941Y1535177D1*
X1233786Y1534607D1*
X1232567Y1534194D1*
X1231304Y1533942D1*
X1230020Y1533858D1*
X1228735Y1533942D1*
X1227472Y1534194D1*
X1226253Y1534607D1*
X1225098Y1535177D1*
X1224028Y1535892D1*
X1223060Y1536741D1*
X1222211Y1537709D1*
X1221496Y1538780D1*
X1220926Y1539934D1*
X1220513Y1541153D1*
X1220261Y1542416D1*
X1220177Y1543701D1*
D1*
X1220261Y1544985D1*
X1220513Y1546248D1*
X1220926Y1547467D1*
X1221496Y1548622D1*
X1222211Y1549693D1*
X1223060Y1550660D1*
X1224028Y1551509D1*
X1225098Y1552225D1*
X1226253Y1552794D1*
X1227472Y1553208D1*
X1228735Y1553459D1*
X1230020Y1553543D1*
X1231304Y1553459D1*
X1232567Y1553208D1*
X1233786Y1552794D1*
X1234941Y1552225D1*
X1236011Y1551509D1*
X1236979Y1550660D1*
X1237828Y1549693D1*
X1238544Y1548622D1*
X1239113Y1547467D1*
X1239527Y1546248D1*
X1239778Y1544985D1*
X1239862Y1543701D1*
D1*
G37*
X1353051Y1563780D2*
D27*
Y1576378D1*
X1459350D1*
Y1563780D1*
X1353051Y1523622D2*
Y1511024D1*
X1459350D1*
Y1523622D1*
G36*
X1297539Y1543701D2*
X1297624Y1544985D1*
X1297875Y1546248D1*
X1298289Y1547467D1*
X1298858Y1548622D1*
X1299573Y1549693D1*
X1300422Y1550660D1*
X1301390Y1551509D1*
X1302461Y1552225D1*
X1303615Y1552794D1*
X1304834Y1553208D1*
X1306097Y1553459D1*
X1307382Y1553543D1*
X1308667Y1553459D1*
X1309929Y1553208D1*
X1311148Y1552794D1*
X1312303Y1552225D1*
X1313374Y1551509D1*
X1314342Y1550660D1*
X1315190Y1549693D1*
X1315906Y1548622D1*
X1316475Y1547467D1*
X1316889Y1546248D1*
X1317140Y1544985D1*
X1317224Y1543701D1*
D1*
X1317140Y1542416D1*
X1316889Y1541153D1*
X1316475Y1539934D1*
X1315906Y1538780D1*
X1315190Y1537709D1*
X1314342Y1536741D1*
X1313374Y1535892D1*
X1312303Y1535177D1*
X1311148Y1534607D1*
X1309929Y1534194D1*
X1308667Y1533942D1*
X1307382Y1533858D1*
X1306097Y1533942D1*
X1304834Y1534194D1*
X1303615Y1534607D1*
X1302461Y1535177D1*
X1301390Y1535892D1*
X1300422Y1536741D1*
X1299573Y1537709D1*
X1298858Y1538780D1*
X1298289Y1539934D1*
X1297875Y1541153D1*
X1297624Y1542416D1*
X1297539Y1543701D1*
D1*
G37*
X2513287Y530315D2*
D27*
G03X2399114Y530315I-57087J-35987D01*
G01*
X2513287Y457087D2*
G02X2399114Y457087I-57087J35987D01*
G01*
G36*
X2386226Y553833D2*
X2386310Y555118D1*
X2386561Y556381D1*
X2386975Y557600D1*
X2387544Y558755D1*
X2388260Y559825D1*
X2389109Y560793D1*
X2390076Y561642D1*
X2391147Y562357D1*
X2392302Y562927D1*
X2393521Y563340D1*
X2394784Y563592D1*
X2396068Y563676D1*
X2397353Y563592D1*
X2398616Y563340D1*
X2399835Y562927D1*
X2400990Y562357D1*
X2402060Y561642D1*
X2403028Y560793D1*
X2403877Y559825D1*
X2404592Y558755D1*
X2405162Y557600D1*
X2405575Y556381D1*
X2405827Y555118D1*
X2405911Y553833D1*
D1*
X2405827Y552549D1*
X2405575Y551286D1*
X2405162Y550067D1*
X2404592Y548912D1*
X2403877Y547842D1*
X2403028Y546874D1*
X2402060Y546025D1*
X2400990Y545309D1*
X2399835Y544740D1*
X2398616Y544326D1*
X2397353Y544075D1*
X2396068Y543991D1*
X2394784Y544075D1*
X2393521Y544326D1*
X2392302Y544740D1*
X2391147Y545309D1*
X2390076Y546025D1*
X2389109Y546874D1*
X2388260Y547842D1*
X2387544Y548912D1*
X2386975Y550067D1*
X2386561Y551286D1*
X2386310Y552549D1*
X2386226Y553833D1*
D1*
G37*
X868799Y459119D2*
D27*
G02X868799Y578282I-103346J59581D01*
G01*
Y459119D1*
X1118799D2*
G02X1118799Y578282I-103346J59581D01*
G01*
Y459119D1*
X1368799D2*
G02X1368799Y578282I-103346J59581D01*
G01*
Y459119D1*
X1618799D2*
G02X1618799Y578282I-103346J59581D01*
G01*
Y459119D1*
X1868799D2*
G02X1868799Y578282I-103346J59581D01*
G01*
Y459119D1*
X2118799D2*
G02X2118799Y578282I-103346J59581D01*
G01*
Y459119D1*
X441726Y1919781D2*
D31*
X391332Y1919779D1*
X391342Y1542614D1*
X441735Y1542615D1*
X598025Y1919785D2*
X548812Y1919783D1*
X1693701Y1966339D2*
D26*
Y1671063D1*
X1993701D1*
Y1966339D1*
X1693701D1*
Y1902461D2*
X1993701D1*
X2275492Y491142D2*
D27*
X2315256D1*
Y546260D1*
X2236909Y491142D2*
X2197146D1*
Y546260D1*
G36*
X2330217Y571457D2*
X2330132Y570172D1*
X2329881Y568909D1*
X2329467Y567690D1*
X2328898Y566535D1*
X2328183Y565465D1*
X2327334Y564497D1*
X2326366Y563648D1*
X2325295Y562933D1*
X2324141Y562363D1*
X2322921Y561950D1*
X2321659Y561698D1*
X2320374Y561614D1*
X2319089Y561698D1*
X2317827Y561950D1*
X2316607Y562363D1*
X2315453Y562933D1*
X2314382Y563648D1*
X2313414Y564497D1*
X2312565Y565465D1*
X2311850Y566535D1*
X2311281Y567690D1*
X2310867Y568909D1*
X2310616Y570172D1*
X2310531Y571457D1*
D1*
X2310616Y572741D1*
X2310867Y574004D1*
X2311281Y575223D1*
X2311850Y576378D1*
X2312565Y577448D1*
X2313414Y578416D1*
X2314382Y579265D1*
X2315453Y579981D1*
X2316607Y580550D1*
X2317827Y580964D1*
X2319089Y581215D1*
X2320374Y581299D1*
X2321659Y581215D1*
X2322921Y580964D1*
X2324141Y580550D1*
X2325295Y579981D1*
X2326366Y579265D1*
X2327334Y578416D1*
X2328183Y577448D1*
X2328898Y576378D1*
X2329467Y575223D1*
X2329881Y574004D1*
X2330132Y572741D1*
X2330217Y571457D1*
D1*
G37*
X2096555Y729429D2*
D26*
Y782972D1*
X2165846Y729429D2*
Y782972D1*
X2170473Y1834056D2*
X2116930Y1834055D1*
X2170472Y1903347D2*
X2116928Y1903346D1*
X866929Y1553346D2*
X920472D1*
X866929Y1484055D2*
X920472D1*
X866929Y1678346D2*
X920472D1*
X866929Y1609055D2*
X920472D1*
X866929Y1803346D2*
X920472D1*
X866929Y1734055D2*
X920472D1*
X866929Y1928346D2*
X920472D1*
X866929Y1859055D2*
X920472D1*
X2540846Y782972D2*
Y729429D1*
X2471555Y782972D2*
Y729429D1*
X2596555D2*
Y782972D1*
X2665846Y729429D2*
Y782972D1*
X2620472Y1834055D2*
X2566929D1*
X2620472Y1903346D2*
X2566929D1*
X866927Y740845D2*
X920470Y740848D1*
X866931Y671554D2*
X920474Y671557D1*
X1379428Y740845D2*
X1432971Y740848D1*
X1379431Y671554D2*
X1432974Y671556D1*
X1904427Y740845D2*
X1957970Y740848D1*
X1904431Y671554D2*
X1957974Y671557D1*
X2415846Y782972D2*
Y729429D1*
X2346555Y782972D2*
Y729429D1*
X641928Y740846D2*
X695471Y740847D1*
X641930Y671554D2*
X695473Y671556D1*
X1154428Y740846D2*
X1207971Y740847D1*
X1154430Y671554D2*
X1207973Y671556D1*
X1679428Y740846D2*
X1732971Y740847D1*
X1679430Y671554D2*
X1732973Y671556D1*
X2114958Y1249324D2*
D10*
X2114963Y1013075D1*
X2272439Y1249327D2*
X2272443Y1013078D1*
X2233073Y1013077D1*
X2272439Y1249327D2*
X2233069Y1249326D1*
X2114958Y1249324D2*
X2154329Y1249325D1*
X2114963Y1013075D2*
X2154333D1*
X2154314Y1131201D2*
G02X2154314Y1131201I39387J0D01*
G01*
G36*
X2137450Y981188D2*
X2136634Y981241D1*
X2135832Y981401D1*
X2135058Y981664D1*
X2134325Y982025D1*
X2133645Y982480D1*
X2133030Y983019D1*
X2132491Y983633D1*
X2132037Y984313D1*
X2131675Y985046D1*
X2131413Y985821D1*
X2131253Y986623D1*
X2131199Y987438D1*
X2131253Y988254D1*
X2131412Y989056D1*
X2131675Y989831D1*
X2132037Y990564D1*
X2132491Y991244D1*
X2133030Y991858D1*
X2133645Y992398D1*
X2134325Y992852D1*
X2135058Y993213D1*
X2135832Y993476D1*
X2136634Y993636D1*
X2137450Y993689D1*
X2137453D1*
X2138269Y993636D1*
X2139070Y993476D1*
X2139845Y993213D1*
X2140578Y992852D1*
X2141258Y992398D1*
X2141873Y991859D1*
X2142412Y991244D1*
X2142866Y990564D1*
X2143228Y989831D1*
X2143490Y989056D1*
X2143650Y988255D1*
X2143703Y987439D1*
X2143650Y986623D1*
X2143490Y985821D1*
X2143228Y985047D1*
X2142866Y984313D1*
X2142412Y983634D1*
X2141873Y983019D1*
X2141258Y982480D1*
X2140578Y982025D1*
X2139845Y981664D1*
X2139071Y981401D1*
X2138269Y981241D1*
X2137453Y981188D1*
X2137450D1*
G37*
X2272441Y1450576D2*
D10*
Y1686825D1*
X2114961Y1450576D2*
Y1686825D1*
X2154331D1*
X2114961Y1450576D2*
X2154331D1*
X2272441D2*
X2233071D1*
X2272441Y1686825D2*
X2233071D1*
X2154314Y1568701D2*
G02X2154314Y1568701I39387J0D01*
G01*
G36*
X2249954Y1718713D2*
X2250770Y1718659D1*
X2251572Y1718500D1*
X2252346Y1718237D1*
X2253079Y1717875D1*
X2253759Y1717421D1*
X2254374Y1716882D1*
X2254913Y1716267D1*
X2255367Y1715587D1*
X2255729Y1714854D1*
X2255992Y1714080D1*
X2256151Y1713278D1*
X2256205Y1712462D1*
X2256151Y1711646D1*
X2255992Y1710844D1*
X2255729Y1710070D1*
X2255367Y1709337D1*
X2254913Y1708657D1*
X2254374Y1708042D1*
X2253759Y1707503D1*
X2253079Y1707049D1*
X2252346Y1706687D1*
X2251572Y1706424D1*
X2250770Y1706265D1*
X2249954Y1706211D1*
X2249951D1*
X2249136Y1706265D1*
X2248334Y1706424D1*
X2247559Y1706687D1*
X2246826Y1707049D1*
X2246146Y1707503D1*
X2245532Y1708042D1*
X2244992Y1708657D1*
X2244538Y1709337D1*
X2244177Y1710070D1*
X2243914Y1710844D1*
X2243754Y1711646D1*
X2243701Y1712462D1*
X2243754Y1713278D1*
X2243914Y1714080D1*
X2244177Y1714854D1*
X2244538Y1715587D1*
X2244992Y1716267D1*
X2245532Y1716882D1*
X2246146Y1717421D1*
X2246826Y1717875D1*
X2247559Y1718237D1*
X2248334Y1718500D1*
X2249136Y1718659D1*
X2249951Y1718713D1*
X2249954D1*
G37*
X864173Y1360630D2*
D27*
X883858Y1340945D1*
Y900000D1*
X864173Y880315D1*
X788205D1*
X643701Y1268110D2*
X662971Y1266848D1*
X681912Y1263080D1*
X700199Y1256871D1*
X717520Y1248331D1*
X733577Y1237601D1*
X748097Y1224869D1*
X760829Y1210349D1*
X771559Y1194291D1*
X780100Y1176971D1*
X786308Y1158684D1*
X787167Y1154364D1*
X696047Y880315D2*
X591354D1*
X499197D2*
X423228D1*
X403543Y900000D1*
Y1340945D1*
X423228Y1360630D1*
X499197D1*
X591354D2*
X695671D1*
X788581D2*
X864173D1*
X787167Y1086581D2*
X786308Y1082261D1*
X780100Y1063974D1*
X771559Y1046654D1*
X760829Y1030596D1*
X748097Y1016076D1*
X733577Y1003344D1*
X717520Y992614D1*
X700199Y984073D1*
X681912Y977865D1*
X662971Y974097D1*
X643701Y972835D1*
X624430Y974097D1*
X605490Y977865D1*
X587202Y984073D1*
X569882Y992614D1*
X553824Y1003344D1*
X539304Y1016076D1*
X526572Y1030596D1*
X515843Y1046654D1*
X507302Y1063974D1*
X501093Y1082261D1*
X500235Y1086581D1*
Y1154364D2*
X501093Y1158684D1*
X507302Y1176971D1*
X515843Y1194291D1*
X526572Y1210349D1*
X539304Y1224869D1*
X553824Y1237601D1*
X569882Y1248331D1*
X587202Y1256871D1*
X605490Y1263080D1*
X624430Y1266848D1*
X643701Y1268110D1*
G36*
X742126Y1430315D2*
X743411Y1430231D1*
X744673Y1429980D1*
X745893Y1429566D1*
X747047Y1428996D1*
X748118Y1428281D1*
X749086Y1427432D1*
X749935Y1426464D1*
X750650Y1425394D1*
X751219Y1424239D1*
X751633Y1423020D1*
X751884Y1421757D1*
X751969Y1420472D1*
X751884Y1419188D1*
X751633Y1417925D1*
X751219Y1416706D1*
X750650Y1415551D1*
X749935Y1414481D1*
X749086Y1413513D1*
X748118Y1412664D1*
X747047Y1411949D1*
X745893Y1411379D1*
X744673Y1410965D1*
X743411Y1410714D1*
X742126Y1410630D1*
D1*
X740841Y1410714D1*
X739579Y1410965D1*
X738359Y1411379D1*
X737205Y1411949D1*
X736134Y1412664D1*
X735166Y1413513D1*
X734317Y1414481D1*
X733602Y1415551D1*
X733033Y1416706D1*
X732619Y1417925D1*
X732368Y1419188D1*
X732283Y1420472D1*
X732368Y1421757D1*
X732619Y1423020D1*
X733033Y1424239D1*
X733602Y1425394D1*
X734317Y1426464D1*
X735166Y1427432D1*
X736134Y1428281D1*
X737205Y1428996D1*
X738359Y1429566D1*
X739579Y1429980D1*
X740841Y1430231D1*
X742126Y1430315D1*
D1*
G37*
X720472Y1197244D2*
D27*
X566929D1*
Y1043701D1*
X720472D1*
Y1197244D1*
X824803Y1301575D2*
Y1247219D1*
Y1221285D2*
Y1168104D1*
Y1072841D2*
Y1016117D1*
Y990182D2*
Y939370D1*
X782259D1*
X756324D2*
X718479D1*
X692545D2*
X653518D1*
X627584D2*
X598916D1*
X573525D2*
X537892D1*
X512501D2*
X462598D1*
Y990375D1*
Y1015924D2*
Y1072841D1*
Y1168104D2*
Y1221478D1*
Y1247026D2*
Y1301575D1*
X509850D1*
X535819D2*
X576780D1*
X602748D2*
X629678D1*
X655361D2*
X687946D1*
X713629D2*
X753694D1*
X779377D2*
X824803D1*
X1451673Y1360630D2*
X1471358Y1340945D1*
Y900000D1*
X1451673Y880315D1*
X1375705D1*
X1231201Y1268110D2*
X1250471Y1266848D1*
X1269412Y1263080D1*
X1287699Y1256871D1*
X1305020Y1248331D1*
X1321077Y1237601D1*
X1335597Y1224869D1*
X1348329Y1210349D1*
X1359059Y1194291D1*
X1367600Y1176971D1*
X1373808Y1158684D1*
X1374667Y1154364D1*
X1283547Y880315D2*
X1178854D1*
X1086697D2*
X1010728D1*
X991043Y900000D1*
Y1340945D1*
X1010728Y1360630D1*
X1086697D1*
X1178854D2*
X1283171D1*
X1376081D2*
X1451673D1*
X1374667Y1086581D2*
X1373808Y1082261D1*
X1367600Y1063974D1*
X1359059Y1046654D1*
X1348329Y1030596D1*
X1335597Y1016076D1*
X1321077Y1003344D1*
X1305020Y992614D1*
X1287699Y984073D1*
X1269412Y977865D1*
X1250471Y974097D1*
X1231201Y972835D1*
X1211930Y974097D1*
X1192990Y977865D1*
X1174702Y984073D1*
X1157382Y992614D1*
X1141324Y1003344D1*
X1126804Y1016076D1*
X1114072Y1030596D1*
X1103343Y1046654D1*
X1094802Y1063974D1*
X1088593Y1082261D1*
X1087735Y1086581D1*
Y1154364D2*
X1088593Y1158684D1*
X1094802Y1176971D1*
X1103343Y1194291D1*
X1114072Y1210349D1*
X1126804Y1224869D1*
X1141324Y1237601D1*
X1157382Y1248331D1*
X1174702Y1256871D1*
X1192990Y1263080D1*
X1211930Y1266848D1*
X1231201Y1268110D1*
G36*
X1329626Y1430315D2*
X1330911Y1430231D1*
X1332173Y1429980D1*
X1333393Y1429566D1*
X1334547Y1428996D1*
X1335618Y1428281D1*
X1336586Y1427432D1*
X1337435Y1426464D1*
X1338150Y1425394D1*
X1338719Y1424239D1*
X1339133Y1423020D1*
X1339384Y1421757D1*
X1339469Y1420472D1*
X1339384Y1419188D1*
X1339133Y1417925D1*
X1338719Y1416706D1*
X1338150Y1415551D1*
X1337435Y1414481D1*
X1336586Y1413513D1*
X1335618Y1412664D1*
X1334547Y1411949D1*
X1333393Y1411379D1*
X1332173Y1410965D1*
X1330911Y1410714D1*
X1329626Y1410630D1*
D1*
X1328341Y1410714D1*
X1327079Y1410965D1*
X1325859Y1411379D1*
X1324705Y1411949D1*
X1323634Y1412664D1*
X1322666Y1413513D1*
X1321817Y1414481D1*
X1321102Y1415551D1*
X1320533Y1416706D1*
X1320119Y1417925D1*
X1319868Y1419188D1*
X1319783Y1420472D1*
X1319868Y1421757D1*
X1320119Y1423020D1*
X1320533Y1424239D1*
X1321102Y1425394D1*
X1321817Y1426464D1*
X1322666Y1427432D1*
X1323634Y1428281D1*
X1324705Y1428996D1*
X1325859Y1429566D1*
X1327079Y1429980D1*
X1328341Y1430231D1*
X1329626Y1430315D1*
D1*
G37*
X1307972Y1197244D2*
D27*
X1154429D1*
Y1043701D1*
X1307972D1*
Y1197244D1*
X1412303Y1301575D2*
Y1247219D1*
Y1221285D2*
Y1168104D1*
Y1072841D2*
Y1016117D1*
Y990182D2*
Y939370D1*
X1369759D1*
X1343824D2*
X1305979D1*
X1280045D2*
X1241018D1*
X1215084D2*
X1186416D1*
X1161025D2*
X1125392D1*
X1100001D2*
X1050098D1*
Y990375D1*
Y1015924D2*
Y1072841D1*
Y1168104D2*
Y1221478D1*
Y1247026D2*
Y1301575D1*
X1097350D1*
X1123319D2*
X1164280D1*
X1190248D2*
X1217178D1*
X1242861D2*
X1275446D1*
X1301129D2*
X1341194D1*
X1366877D2*
X1412303D1*
X2039173Y1360630D2*
X2058858Y1340945D1*
Y900000D1*
X2039173Y880315D1*
X1963205D1*
X1818701Y1268110D2*
X1837971Y1266848D1*
X1856912Y1263080D1*
X1875199Y1256871D1*
X1892520Y1248331D1*
X1908577Y1237601D1*
X1923097Y1224869D1*
X1935829Y1210349D1*
X1946559Y1194291D1*
X1955100Y1176971D1*
X1961308Y1158684D1*
X1962167Y1154364D1*
X1871047Y880315D2*
X1766354D1*
X1674197D2*
X1598228D1*
X1578543Y900000D1*
Y1340945D1*
X1598228Y1360630D1*
X1674197D1*
X1766354D2*
X1870671D1*
X1963581D2*
X2039173D1*
X1962167Y1086581D2*
X1961308Y1082261D1*
X1955100Y1063974D1*
X1946559Y1046654D1*
X1935829Y1030596D1*
X1923097Y1016076D1*
X1908577Y1003344D1*
X1892520Y992614D1*
X1875199Y984073D1*
X1856912Y977865D1*
X1837971Y974097D1*
X1818701Y972835D1*
X1799430Y974097D1*
X1780490Y977865D1*
X1762202Y984073D1*
X1744882Y992614D1*
X1728824Y1003344D1*
X1714304Y1016076D1*
X1701572Y1030596D1*
X1690843Y1046654D1*
X1682302Y1063974D1*
X1676093Y1082261D1*
X1675235Y1086581D1*
Y1154364D2*
X1676093Y1158684D1*
X1682302Y1176971D1*
X1690843Y1194291D1*
X1701572Y1210349D1*
X1714304Y1224869D1*
X1728824Y1237601D1*
X1744882Y1248331D1*
X1762202Y1256871D1*
X1780490Y1263080D1*
X1799430Y1266848D1*
X1818701Y1268110D1*
G36*
X1917126Y1430315D2*
X1918411Y1430231D1*
X1919673Y1429980D1*
X1920893Y1429566D1*
X1922047Y1428996D1*
X1923118Y1428281D1*
X1924086Y1427432D1*
X1924935Y1426464D1*
X1925650Y1425394D1*
X1926219Y1424239D1*
X1926633Y1423020D1*
X1926884Y1421757D1*
X1926969Y1420472D1*
X1926884Y1419188D1*
X1926633Y1417925D1*
X1926219Y1416706D1*
X1925650Y1415551D1*
X1924935Y1414481D1*
X1924086Y1413513D1*
X1923118Y1412664D1*
X1922047Y1411949D1*
X1920893Y1411379D1*
X1919673Y1410965D1*
X1918411Y1410714D1*
X1917126Y1410630D1*
D1*
X1915841Y1410714D1*
X1914579Y1410965D1*
X1913359Y1411379D1*
X1912205Y1411949D1*
X1911134Y1412664D1*
X1910166Y1413513D1*
X1909317Y1414481D1*
X1908602Y1415551D1*
X1908033Y1416706D1*
X1907619Y1417925D1*
X1907368Y1419188D1*
X1907283Y1420472D1*
X1907368Y1421757D1*
X1907619Y1423020D1*
X1908033Y1424239D1*
X1908602Y1425394D1*
X1909317Y1426464D1*
X1910166Y1427432D1*
X1911134Y1428281D1*
X1912205Y1428996D1*
X1913359Y1429566D1*
X1914579Y1429980D1*
X1915841Y1430231D1*
X1917126Y1430315D1*
D1*
G37*
X1895472Y1197244D2*
D27*
X1741929D1*
Y1043701D1*
X1895472D1*
Y1197244D1*
X1999803Y1301575D2*
Y1247219D1*
Y1221285D2*
Y1168104D1*
Y1072841D2*
Y1016117D1*
Y990182D2*
Y939370D1*
X1957259D1*
X1931324D2*
X1893479D1*
X1867545D2*
X1828518D1*
X1802584D2*
X1773916D1*
X1748525D2*
X1712892D1*
X1687501D2*
X1637598D1*
Y990375D1*
Y1015924D2*
Y1072841D1*
Y1168104D2*
Y1221478D1*
Y1247026D2*
Y1301575D1*
X1684850D1*
X1710819D2*
X1751780D1*
X1777748D2*
X1804678D1*
X1830361D2*
X1862946D1*
X1888629D2*
X1928694D1*
X1954377D2*
X1999803D1*
X2362500Y1660531D2*
D13*
X2367618D1*
X2362500Y951870D2*
X2367618D1*
X3149902Y1660531D2*
X2900689D1*
X2362500D2*
Y951870D1*
X2900689D2*
X3149902D1*
Y1660531D1*
G36*
X2870374Y1727461D2*
X2871402Y1727393D1*
X2872412Y1727192D1*
X2873387Y1726861D1*
X2874311Y1726406D1*
X2875167Y1725833D1*
X2875942Y1725154D1*
X2876621Y1724380D1*
X2877193Y1723524D1*
X2877649Y1722600D1*
X2877980Y1721625D1*
X2878181Y1720614D1*
X2878248Y1719587D1*
X2878181Y1718559D1*
X2877980Y1717549D1*
X2877649Y1716573D1*
X2877193Y1715650D1*
X2876621Y1714793D1*
X2875942Y1714019D1*
X2875167Y1713340D1*
X2874311Y1712768D1*
X2873387Y1712312D1*
X2872412Y1711981D1*
X2871402Y1711780D1*
X2870374Y1711713D1*
D1*
X2869346Y1711780D1*
X2868336Y1711981D1*
X2867361Y1712312D1*
X2866437Y1712768D1*
X2865581Y1713340D1*
X2864806Y1714019D1*
X2864127Y1714793D1*
X2863555Y1715650D1*
X2863099Y1716573D1*
X2862768Y1717549D1*
X2862567Y1718559D1*
X2862500Y1719587D1*
X2862567Y1720614D1*
X2862768Y1721625D1*
X2863099Y1722600D1*
X2863555Y1723524D1*
X2864127Y1724380D1*
X2864806Y1725154D1*
X2865581Y1725833D1*
X2866437Y1726406D1*
X2867361Y1726861D1*
X2868336Y1727192D1*
X2869346Y1727393D1*
X2870374Y1727461D1*
D1*
G37*
X1416929Y1828248D2*
D27*
Y1888484D1*
X1270472D1*
Y1873130D1*
X1416929Y1684154D2*
Y1623917D1*
X1270472D1*
Y1639272D1*
G36*
X1199606Y1890453D2*
X1200891Y1890369D1*
X1202154Y1890117D1*
X1203373Y1889704D1*
X1204528Y1889134D1*
X1205598Y1888419D1*
X1206566Y1887570D1*
X1207415Y1886602D1*
X1208130Y1885531D1*
X1208700Y1884377D1*
X1209113Y1883158D1*
X1209365Y1881895D1*
X1209449Y1880610D1*
X1209365Y1879326D1*
X1209113Y1878063D1*
X1208700Y1876844D1*
X1208130Y1875689D1*
X1207415Y1874618D1*
X1206566Y1873651D1*
X1205598Y1872802D1*
X1204528Y1872086D1*
X1203373Y1871517D1*
X1202154Y1871103D1*
X1200891Y1870852D1*
X1199606Y1870768D1*
D1*
X1198322Y1870852D1*
X1197059Y1871103D1*
X1195840Y1871517D1*
X1194685Y1872086D1*
X1193615Y1872802D1*
X1192647Y1873651D1*
X1191798Y1874618D1*
X1191082Y1875689D1*
X1190513Y1876844D1*
X1190099Y1878063D1*
X1189848Y1879326D1*
X1189764Y1880610D1*
X1189848Y1881895D1*
X1190099Y1883158D1*
X1190513Y1884377D1*
X1191082Y1885531D1*
X1191798Y1886602D1*
X1192647Y1887570D1*
X1193615Y1888419D1*
X1194685Y1889134D1*
X1195840Y1889704D1*
X1197059Y1890117D1*
X1198322Y1890369D1*
X1199606Y1890453D1*
D1*
G37*
X2844583Y857876D2*
D27*
X2875096Y857877D1*
X2875102Y629530D1*
X2841096D1*
X2783562Y857875D2*
X2737300Y857873D1*
X2737306Y629527D1*
X2787060Y629528D1*
G36*
X2814071Y891734D2*
X2815356Y891649D1*
X2816619Y891398D1*
X2817838Y890984D1*
X2818992Y890415D1*
X2820063Y889700D1*
X2821031Y888851D1*
X2821880Y887883D1*
X2822595Y886813D1*
X2823165Y885658D1*
X2823579Y884439D1*
X2823830Y883176D1*
X2823914Y881891D1*
X2823830Y880607D1*
X2823579Y879344D1*
X2823165Y878125D1*
X2822595Y876970D1*
X2821880Y875899D1*
X2821031Y874932D1*
X2820063Y874083D1*
X2818993Y873367D1*
X2817838Y872798D1*
X2816619Y872384D1*
X2815356Y872133D1*
X2814072Y872049D1*
D1*
X2812787Y872133D1*
X2811524Y872384D1*
X2810305Y872798D1*
X2809150Y873367D1*
X2808080Y874082D1*
X2807112Y874931D1*
X2806263Y875899D1*
X2805548Y876970D1*
X2804978Y878124D1*
X2804564Y879343D1*
X2804313Y880606D1*
X2804229Y881891D1*
X2804313Y883175D1*
X2804564Y884438D1*
X2804978Y885657D1*
X2805547Y886812D1*
X2806263Y887883D1*
X2807112Y888851D1*
X2808079Y889699D1*
X2809150Y890415D1*
X2810305Y890984D1*
X2811524Y891398D1*
X2812786Y891649D1*
X2814071Y891734D1*
D1*
G37*
X2737301Y832073D2*
D27*
G03X2737306Y655327I5908J-88373D01*
G01*
X1672561Y1476742D2*
D83*
Y1426502D1*
X1694116D1*
X1701301Y1428934D1*
X1703677Y1431311D1*
X1706054Y1436064D1*
Y1443249D1*
X1703677Y1448057D1*
X1701301Y1450434D1*
X1694116Y1452810D1*
X1701301Y1455242D1*
X1703677Y1457619D1*
X1706054Y1462372D1*
Y1467180D1*
X1703677Y1471934D1*
X1701301Y1474366D1*
X1694116Y1476742D1*
X1672561D1*
Y1452810D2*
X1694116D1*
X1738240Y1476742D2*
Y1426502D1*
X1721493Y1476742D2*
X1754987D1*
X1775234Y1476687D2*
X1801487D1*
X1787172Y1457564D1*
X1794357D1*
X1799111Y1455187D1*
X1801487Y1452810D1*
X1803919Y1445625D1*
Y1440872D1*
X1801487Y1433687D1*
X1796734Y1428879D1*
X1789549Y1426502D1*
X1782364D1*
X1775234Y1428879D1*
X1772858Y1431311D1*
X1770426Y1436064D1*
X1884706Y1489841D2*
X1879898Y1485088D1*
X1875144Y1477903D1*
X1870336Y1468341D1*
X1867959Y1456348D1*
Y1446786D1*
X1870336Y1434848D1*
X1875144Y1425286D1*
X1879898Y1418101D1*
X1884706Y1413348D1*
X1900145Y1476742D2*
Y1426502D1*
X1929955Y1476742D2*
X1925146Y1474366D1*
X1920393Y1469557D1*
X1917961Y1464804D1*
X1915584Y1457619D1*
Y1445625D1*
X1917961Y1438496D1*
X1920393Y1433687D1*
X1925146Y1428934D1*
X1929955Y1426502D1*
X1939516D1*
X1944269Y1428934D1*
X1949078Y1433687D1*
X1951454Y1438496D1*
X1953831Y1445625D1*
Y1457619D1*
X1951454Y1464804D1*
X1949078Y1469557D1*
X1944269Y1474366D1*
X1939516Y1476742D1*
X1929955D1*
X1971702Y1464749D2*
Y1467125D1*
X1974079Y1471934D1*
X1976455Y1474310D1*
X1981264Y1476687D1*
X1990825D1*
X1995579Y1474310D1*
X1997955Y1471934D1*
X2000387Y1467125D1*
Y1462372D1*
X1997955Y1457564D1*
X1993202Y1450434D1*
X1969270Y1426502D1*
X2002764D1*
X2018203Y1489841D2*
X2023011Y1485088D1*
X2027764Y1477903D1*
X2032573Y1468341D1*
X2034949Y1456348D1*
Y1446786D1*
X2032573Y1434848D1*
X2027764Y1425286D1*
X2023011Y1418101D1*
X2018203Y1413348D1*
X1097561Y1476742D2*
Y1426502D1*
X1119116D1*
X1126301Y1428934D1*
X1128677Y1431311D1*
X1131054Y1436064D1*
Y1443249D1*
X1128677Y1448057D1*
X1126301Y1450434D1*
X1119116Y1452810D1*
X1126301Y1455242D1*
X1128677Y1457619D1*
X1131054Y1462372D1*
Y1467180D1*
X1128677Y1471934D1*
X1126301Y1474366D1*
X1119116Y1476742D1*
X1097561D1*
Y1452810D2*
X1119116D1*
X1163240Y1476742D2*
Y1426502D1*
X1146493Y1476742D2*
X1179987D1*
X1197858Y1464749D2*
Y1467125D1*
X1200234Y1471934D1*
X1202611Y1474310D1*
X1207419Y1476687D1*
X1216981D1*
X1221734Y1474310D1*
X1224111Y1471934D1*
X1226543Y1467125D1*
Y1462372D1*
X1224111Y1457564D1*
X1219357Y1450434D1*
X1195426Y1426502D1*
X1228919D1*
X1309706Y1489841D2*
X1304898Y1485088D1*
X1300144Y1477903D1*
X1295336Y1468341D1*
X1292959Y1456348D1*
Y1446786D1*
X1295336Y1434848D1*
X1300144Y1425286D1*
X1304898Y1418101D1*
X1309706Y1413348D1*
X1325145Y1476742D2*
Y1426502D1*
X1354955Y1476742D2*
X1350146Y1474366D1*
X1345393Y1469557D1*
X1342961Y1464804D1*
X1340584Y1457619D1*
Y1445625D1*
X1342961Y1438496D1*
X1345393Y1433687D1*
X1350146Y1428934D1*
X1354955Y1426502D1*
X1364516D1*
X1369269Y1428934D1*
X1374078Y1433687D1*
X1376454Y1438496D1*
X1378831Y1445625D1*
Y1457619D1*
X1376454Y1464804D1*
X1374078Y1469557D1*
X1369269Y1474366D1*
X1364516Y1476742D1*
X1354955D1*
X1394270Y1467125D2*
X1399079Y1469557D1*
X1406264Y1476687D1*
Y1426502D1*
X1421703Y1489841D2*
X1426511Y1485088D1*
X1431265Y1477903D1*
X1436073Y1468341D1*
X1438450Y1456348D1*
Y1446786D1*
X1436073Y1434848D1*
X1431265Y1425286D1*
X1426511Y1418101D1*
X1421703Y1413348D1*
X472561Y1489242D2*
Y1439002D1*
X494116D1*
X501301Y1441434D1*
X503677Y1443811D1*
X506054Y1448564D1*
Y1455749D1*
X503677Y1460557D1*
X501301Y1462934D1*
X494116Y1465310D1*
X501301Y1467742D1*
X503677Y1470119D1*
X506054Y1474872D1*
Y1479680D1*
X503677Y1484434D1*
X501301Y1486866D1*
X494116Y1489242D1*
X472561D1*
Y1465310D2*
X494116D1*
X538240Y1489242D2*
Y1439002D1*
X521493Y1489242D2*
X554987D1*
X570426Y1479625D2*
X575234Y1482057D1*
X582419Y1489187D1*
Y1439002D1*
X663206Y1502341D2*
X658398Y1497588D1*
X653645Y1490403D1*
X648836Y1480841D1*
X646459Y1468848D1*
Y1459286D1*
X648836Y1447348D1*
X653645Y1437786D1*
X658398Y1430601D1*
X663206Y1425848D1*
X678645Y1489242D2*
Y1439002D1*
X708455Y1489242D2*
X703646Y1486866D1*
X698893Y1482057D1*
X696461Y1477304D1*
X694085Y1470119D1*
Y1458125D1*
X696461Y1450996D1*
X698893Y1446187D1*
X703646Y1441434D1*
X708455Y1439002D1*
X718016D1*
X722770Y1441434D1*
X727578Y1446187D1*
X729955Y1450996D1*
X732331Y1458125D1*
Y1470119D1*
X729955Y1477304D1*
X727578Y1482057D1*
X722770Y1486866D1*
X718016Y1489242D1*
X708455D1*
X762140Y1489187D2*
X754955Y1486810D1*
X750147Y1479625D1*
X747770Y1467687D1*
Y1460502D1*
X750147Y1448564D1*
X754955Y1441379D1*
X762140Y1439002D1*
X766894D1*
X774079Y1441379D1*
X778832Y1448564D1*
X781264Y1460502D1*
Y1467687D1*
X778832Y1479625D1*
X774079Y1486810D1*
X766894Y1489187D1*
X762140D1*
X778832Y1479625D2*
X750147Y1448564D1*
X796703Y1502341D2*
X801511Y1497588D1*
X806265Y1490403D1*
X811073Y1480841D1*
X813450Y1468848D1*
Y1459286D1*
X811073Y1447348D1*
X806265Y1437786D1*
X801511Y1430601D1*
X796703Y1425848D1*
X2141113Y454215D2*
D84*
X2138261Y457100D1*
X2133950Y458526D1*
X2128213D1*
X2123902Y457100D1*
X2121017Y454215D1*
Y451363D1*
X2122476Y448478D1*
X2123902Y447052D1*
X2126754Y445626D1*
X2135376Y442741D1*
X2138261Y441315D1*
X2139687Y439856D1*
X2141113Y437004D1*
Y432693D1*
X2138261Y429841D1*
X2133950Y428382D1*
X2128213D1*
X2123902Y429841D1*
X2121017Y432693D1*
X2169013Y458526D2*
X2150376D1*
Y428382D1*
X2169013D1*
X2150376Y444167D2*
X2161850D1*
X2198373Y458526D2*
Y428382D1*
X2178277Y458526D1*
Y428382D1*
X2207636Y458526D2*
Y428382D1*
X2217684D1*
X2221995Y429841D1*
X2224880Y432693D1*
X2226306Y435578D1*
X2227732Y439856D1*
Y447052D1*
X2226306Y451363D1*
X2224880Y454215D1*
X2221995Y457100D1*
X2217684Y458526D1*
X2207636D1*
X2276204Y466385D2*
X2273319Y463533D1*
X2270467Y459222D1*
X2267582Y453485D1*
X2266156Y446289D1*
Y440552D1*
X2267582Y433389D1*
X2270467Y427652D1*
X2273319Y423341D1*
X2276204Y420489D1*
X2285468Y458526D2*
Y428382D1*
X2303353Y458526D2*
X2300468Y457100D1*
X2297617Y454215D1*
X2296157Y451363D1*
X2294731Y447052D1*
Y439856D1*
X2296157Y435578D1*
X2297617Y432693D1*
X2300468Y429841D1*
X2303353Y428382D1*
X2309090D1*
X2311942Y429841D1*
X2314827Y432693D1*
X2316253Y435578D1*
X2317679Y439856D1*
Y447052D1*
X2316253Y451363D1*
X2314827Y454215D1*
X2311942Y457100D1*
X2309090Y458526D1*
X2303353D1*
X2341302Y428382D2*
Y458492D1*
X2326943Y438430D1*
X2348465D1*
X2357728Y466385D2*
X2360613Y463533D1*
X2363465Y459222D1*
X2366350Y453485D1*
X2367776Y446289D1*
Y440552D1*
X2366350Y433389D1*
X2363465Y427652D1*
X2360613Y423341D1*
X2357728Y420489D1*
X2696017Y906667D2*
X2708917D1*
X2713228Y908126D1*
X2714687Y909552D1*
X2716113Y912404D1*
Y915289D1*
X2714687Y918141D1*
X2713228Y919600D1*
X2708917Y921026D1*
X2696017D1*
Y890882D1*
X2706065Y906667D2*
X2716113Y890882D1*
X2744013Y921026D2*
X2725376D1*
Y890882D1*
X2744013D1*
X2725376Y906667D2*
X2736850D1*
X2774799Y913863D2*
X2773373Y916715D1*
X2770488Y919600D1*
X2767636Y921026D1*
X2761899D1*
X2759014Y919600D1*
X2756162Y916715D1*
X2754703Y913863D1*
X2753277Y909552D1*
Y902356D1*
X2754703Y898078D1*
X2756162Y895193D1*
X2759014Y892341D1*
X2761899Y890882D1*
X2767636D1*
X2770488Y892341D1*
X2773373Y895193D1*
X2774799Y898078D1*
X2823271Y928885D2*
X2820386Y926033D1*
X2817534Y921722D1*
X2814649Y915985D1*
X2813223Y908789D1*
Y903052D1*
X2814649Y895889D1*
X2817534Y890152D1*
X2820386Y885841D1*
X2823271Y882989D1*
X2832534Y921026D2*
Y890882D1*
X2850420Y921026D2*
X2847535Y919600D1*
X2844683Y916715D1*
X2843224Y913863D1*
X2841798Y909552D1*
Y902356D1*
X2843224Y898078D1*
X2844683Y895193D1*
X2847535Y892341D1*
X2850420Y890882D1*
X2856157D1*
X2859009Y892341D1*
X2861894Y895193D1*
X2863320Y898078D1*
X2864746Y902356D1*
Y909552D1*
X2863320Y913863D1*
X2861894Y916715D1*
X2859009Y919600D1*
X2856157Y921026D1*
X2850420D1*
X2891220Y920992D2*
X2876894D1*
X2875468Y908093D1*
X2876894Y909518D1*
X2881205Y910978D1*
X2885483D1*
X2889794Y909518D1*
X2892679Y906667D1*
X2894105Y902356D1*
Y899504D1*
X2892679Y895193D1*
X2889794Y892308D1*
X2885483Y890882D1*
X2881205D1*
X2876894Y892308D1*
X2875468Y893767D1*
X2874009Y896619D1*
X2903369Y928885D2*
X2906254Y926033D1*
X2909106Y921722D1*
X2911991Y915985D1*
X2913417Y908789D1*
Y903052D1*
X2911991Y895889D1*
X2909106Y890152D1*
X2906254Y885841D1*
X2903369Y882989D1*
X2346017Y633526D2*
Y603382D1*
X2363228D1*
X2391128Y633526D2*
X2372491D1*
Y603382D1*
X2391128D1*
X2372491Y619167D2*
X2383965D1*
X2400392Y633526D2*
Y603382D1*
X2410440D1*
X2414751Y604841D1*
X2417636Y607693D1*
X2419062Y610578D1*
X2420488Y614856D1*
Y622052D1*
X2419062Y626363D1*
X2417636Y629215D1*
X2414751Y632100D1*
X2410440Y633526D1*
X2400392D1*
X2468960Y641385D2*
X2466075Y638533D1*
X2463223Y634222D1*
X2460338Y628485D1*
X2458912Y621289D1*
Y615552D1*
X2460338Y608389D1*
X2463223Y602652D1*
X2466075Y598341D1*
X2468960Y595489D1*
X2478223Y633526D2*
Y603382D1*
X2496109Y633526D2*
X2493224Y632100D1*
X2490372Y629215D1*
X2488913Y626363D1*
X2487487Y622052D1*
Y614856D1*
X2488913Y610578D1*
X2490372Y607693D1*
X2493224Y604841D1*
X2496109Y603382D1*
X2501846D1*
X2504698Y604841D1*
X2507583Y607693D1*
X2509009Y610578D1*
X2510435Y614856D1*
Y622052D1*
X2509009Y626363D1*
X2507583Y629215D1*
X2504698Y632100D1*
X2501846Y633526D1*
X2496109D1*
X2536909Y629215D2*
X2535483Y632066D1*
X2531172Y633492D1*
X2528320D1*
X2524009Y632066D1*
X2521124Y627755D1*
X2519698Y620593D1*
Y613430D1*
X2521124Y607693D1*
X2524009Y604808D1*
X2528320Y603382D1*
X2529746D1*
X2534024Y604808D1*
X2536909Y607693D1*
X2538335Y612004D1*
Y613430D1*
X2536909Y617741D1*
X2534024Y620593D1*
X2529746Y622018D1*
X2528320D1*
X2524009Y620593D1*
X2521124Y617741D1*
X2519698Y613430D1*
X2547599Y641385D2*
X2550484Y638533D1*
X2553336Y634222D1*
X2556221Y628485D1*
X2557647Y621289D1*
Y615552D1*
X2556221Y608389D1*
X2553336Y602652D1*
X2550484Y598341D1*
X2547599Y595489D1*
X2294768Y1496789D2*
D85*
X2334960D1*
Y1514033D1*
X2333014Y1519781D1*
X2331113Y1521682D1*
X2327310Y1523583D1*
X2321562D1*
X2317716Y1521682D1*
X2315814Y1519781D1*
X2313913Y1514033D1*
X2311968Y1519781D1*
X2310066Y1521682D1*
X2306264Y1523583D1*
X2302417D1*
X2298614Y1521682D1*
X2296669Y1519781D1*
X2294768Y1514033D1*
Y1496789D1*
X2313913D2*
Y1514033D1*
X2294768Y1547431D2*
X2296669Y1543584D1*
X2300516Y1539781D1*
X2304318Y1537836D1*
X2310066Y1535935D1*
X2319661D1*
X2325365Y1537836D1*
X2329212Y1539781D1*
X2333014Y1543584D1*
X2334960Y1547431D1*
Y1555080D1*
X2333014Y1558883D1*
X2329212Y1562729D1*
X2325365Y1564631D1*
X2319661Y1566532D1*
X2310066D1*
X2304318Y1564631D1*
X2300516Y1562729D1*
X2296669Y1558883D1*
X2294768Y1555080D1*
Y1547431D1*
Y1590379D2*
X2296669Y1586533D1*
X2300516Y1582730D1*
X2304318Y1580785D1*
X2310066Y1578883D1*
X2319661D1*
X2325365Y1580785D1*
X2329212Y1582730D1*
X2333014Y1586533D1*
X2334960Y1590379D1*
Y1598029D1*
X2333014Y1601831D1*
X2329212Y1605678D1*
X2325365Y1607579D1*
X2319661Y1609481D1*
X2310066D1*
X2304318Y1607579D1*
X2300516Y1605678D1*
X2296669Y1601831D1*
X2294768Y1598029D1*
Y1590379D1*
Y1635229D2*
X2334960D1*
X2294768Y1621832D2*
Y1648627D1*
X2326413Y1046789D2*
Y1063989D1*
X2324468Y1069737D1*
X2322566Y1071682D1*
X2318764Y1073583D1*
X2314917D1*
X2311114Y1071682D1*
X2309169Y1069737D1*
X2307268Y1063989D1*
Y1046789D1*
X2347460D1*
X2326413Y1060186D2*
X2347460Y1073583D1*
X2307268Y1110784D2*
Y1085935D1*
X2347460D1*
Y1110784D1*
X2326413Y1085935D2*
Y1101233D1*
X2313016Y1149930D2*
X2309169Y1146127D1*
X2307268Y1140379D1*
Y1132730D1*
X2309169Y1126982D1*
X2313016Y1123135D1*
X2316818D1*
X2320665Y1125081D1*
X2322566Y1126982D1*
X2324468Y1130785D1*
X2328314Y1142281D1*
X2330216Y1146127D1*
X2332161Y1148029D1*
X2335964Y1149930D1*
X2341712D1*
X2345514Y1146127D1*
X2347460Y1140379D1*
Y1132730D1*
X2345514Y1126982D1*
X2341712Y1123135D1*
X2307268Y1187131D2*
Y1162281D1*
X2347460D1*
Y1187131D1*
X2326413Y1162281D2*
Y1177580D1*
X2307268Y1212879D2*
X2347460D1*
X2307268Y1199482D2*
Y1226277D1*
X1901245Y1639187D2*
D83*
X1877369D1*
X1874992Y1617687D1*
X1877369Y1620064D1*
X1884554Y1622495D1*
X1891684D1*
X1898869Y1620064D1*
X1903677Y1615310D1*
X1906054Y1608125D1*
Y1603372D1*
X1903677Y1596187D1*
X1898869Y1591379D1*
X1891684Y1589002D1*
X1884554D1*
X1877369Y1591379D1*
X1874992Y1593811D1*
X1872561Y1598564D1*
X1921493Y1639242D2*
X1940616Y1589002D1*
X1959740Y1639242D1*
X1610833Y1943173D2*
D86*
X1643994D1*
X2031560Y1948122D2*
D83*
Y1905067D1*
X2010061Y1926567D2*
X2053116D1*
X2257888Y881502D2*
D82*
X2256938Y883403D1*
X2255014Y885327D1*
X2253113Y886277D1*
X2249288D1*
X2247365Y885327D1*
X2245464Y883403D1*
X2244491Y881502D1*
X2243540Y878628D1*
Y873831D1*
X2244491Y870979D1*
X2245464Y869055D1*
X2247365Y867154D1*
X2249288Y866181D1*
X2253113D1*
X2255014Y867154D1*
X2256938Y869055D1*
X2257888Y870979D1*
X2264064Y882431D2*
X2265987Y883403D1*
X2268861Y886255D1*
Y866181D1*
X1171758Y1796313D2*
X1173659Y1797264D1*
X1175583Y1799187D1*
X1176533Y1801089D1*
Y1804913D1*
X1175583Y1806837D1*
X1173659Y1808738D1*
X1171758Y1809711D1*
X1168884Y1810661D1*
X1164087D1*
X1161235Y1809711D1*
X1159311Y1808738D1*
X1157410Y1806837D1*
X1156437Y1804913D1*
Y1801089D1*
X1157410Y1799187D1*
X1159311Y1797264D1*
X1161235Y1796313D1*
X1171736Y1789165D2*
X1172687D1*
X1174610Y1788214D1*
X1175561Y1787264D1*
X1176511Y1785340D1*
Y1781516D1*
X1175561Y1779614D1*
X1174610Y1778664D1*
X1172687Y1777691D1*
X1170785D1*
X1168862Y1778664D1*
X1166010Y1780565D1*
X1156437Y1790138D1*
Y1776740D1*
X1659258Y1796313D2*
X1661159Y1797264D1*
X1663083Y1799187D1*
X1664033Y1801089D1*
Y1804913D1*
X1663083Y1806837D1*
X1661159Y1808738D1*
X1659258Y1809711D1*
X1656384Y1810661D1*
X1651587D1*
X1648735Y1809711D1*
X1646811Y1808738D1*
X1644910Y1806837D1*
X1643937Y1804913D1*
Y1801089D1*
X1644910Y1799187D1*
X1646811Y1797264D1*
X1648735Y1796313D1*
X1664011Y1788214D2*
Y1777713D1*
X1656362Y1783439D1*
Y1780565D1*
X1655411Y1778664D1*
X1654461Y1777713D1*
X1651587Y1776740D1*
X1649685D1*
X1646811Y1777713D1*
X1644888Y1779614D1*
X1643937Y1782488D1*
Y1785362D1*
X1644888Y1788214D1*
X1645861Y1789165D1*
X1647762Y1790138D1*
X2721790Y453144D2*
X2722741Y451242D1*
X2724664Y449319D1*
X2726566Y448368D1*
X2730390Y448369D1*
X2732314Y449319D1*
X2734215Y451243D1*
X2735188Y453144D1*
X2736138Y456018D1*
Y460815D1*
X2735187Y463667D1*
X2734215Y465591D1*
X2732313Y467492D1*
X2730390Y468465D1*
X2726565Y468464D1*
X2724664Y467492D1*
X2722741Y465590D1*
X2721790Y463667D1*
X2706042Y468464D2*
Y448390D1*
X2715614Y461766D1*
X2701266Y461765D1*
X2371315Y1790644D2*
X2372266Y1788742D1*
X2374189Y1786819D1*
X2376090Y1785868D1*
X2379915D1*
X2381838Y1786819D1*
X2383740Y1788743D1*
X2384712Y1790644D1*
X2385663Y1793518D1*
Y1798315D1*
X2384712Y1801167D1*
X2383739Y1803091D1*
X2381838Y1804992D1*
X2379915Y1805964D1*
X2376090D1*
X2374189Y1804992D1*
X2372265Y1803090D1*
X2371315Y1801167D1*
X2353665Y1785890D2*
X2363216D1*
X2364167Y1794490D1*
X2363216Y1793540D1*
X2360342Y1792567D1*
X2357490D1*
X2354616Y1793539D1*
X2352693Y1795441D1*
X2351742Y1798315D1*
Y1800216D1*
X2352692Y1803090D1*
X2354616Y1805013D1*
X2357490Y1805964D1*
X2360342D1*
X2363216Y1805013D1*
X2364166Y1804041D1*
X2365139Y1802140D1*
X1670827Y1503144D2*
X1671778Y1501242D1*
X1673701Y1499319D1*
X1675602Y1498368D1*
X1679427D1*
X1681350Y1499319D1*
X1683252Y1501242D1*
X1684224Y1503144D1*
X1685175Y1506018D1*
Y1510815D1*
X1684224Y1513667D1*
X1683252Y1515590D1*
X1681350Y1517492D1*
X1679427Y1518464D1*
X1675602D1*
X1673701Y1517492D1*
X1671778Y1515590D1*
X1670827Y1513667D1*
X1653177Y1501242D2*
X1654128Y1499341D1*
X1657002Y1498390D1*
X1658903D1*
X1661777Y1499341D1*
X1663701Y1502215D1*
X1664651Y1506990D1*
Y1511766D1*
X1663701Y1515590D1*
X1661777Y1517514D1*
X1658903Y1518464D1*
X1657953D1*
X1655101Y1517514D1*
X1653177Y1515590D1*
X1652227Y1512716D1*
Y1511766D1*
X1653177Y1508892D1*
X1655101Y1506990D1*
X1657953Y1506040D1*
X1658903D1*
X1661777Y1506990D1*
X1663701Y1508892D1*
X1664651Y1511766D1*
X1152638Y1589067D2*
Y1609163D1*
X1145939D1*
X1143065Y1608190D1*
X1141142Y1606289D1*
X1140191Y1604366D1*
X1139241Y1601514D1*
Y1596716D1*
X1140191Y1593842D1*
X1141142Y1591941D1*
X1143065Y1590018D1*
X1145939Y1589067D1*
X1152638D1*
X1133065Y1592914D2*
X1131142Y1591941D1*
X1128268Y1589089D1*
Y1609163D1*
X1380464Y1611573D2*
Y1591477D1*
X1387162D1*
X1390036Y1592449D1*
X1391960Y1594351D1*
X1392910Y1596274D1*
X1393861Y1599126D1*
Y1603923D1*
X1392910Y1606797D1*
X1391960Y1608699D1*
X1390036Y1610622D1*
X1387162Y1611573D1*
X1380464D1*
X1401009Y1606775D2*
Y1607726D1*
X1401960Y1609649D1*
X1402911Y1610600D1*
X1404834Y1611551D1*
X1408659D1*
X1410560Y1610600D1*
X1411511Y1609649D1*
X1412483Y1607726D1*
Y1605825D1*
X1411511Y1603901D1*
X1409609Y1601049D1*
X1400037Y1591477D1*
X1413434D1*
X742675Y1666945D2*
X727376D1*
X724502Y1667896D1*
X723552Y1668868D1*
X722579Y1670770D1*
Y1672693D1*
X723552Y1674594D1*
X724502Y1675545D1*
X727376Y1676518D1*
X729277D1*
X738828Y1660770D2*
X739801Y1658846D1*
X742653Y1655972D1*
X722579D1*
X2267143Y595957D2*
X2269044Y596885D1*
X2270968Y598809D1*
X2271918Y600732D1*
X2272891Y603606D1*
Y608381D1*
X2271918Y611255D1*
X2270968Y613157D1*
X2269044Y615080D1*
X2267143Y616031D1*
X2263318D1*
X2261395Y615080D1*
X2259494Y613157D1*
X2258543Y611255D1*
X2257570Y608381D1*
Y603606D1*
X2258543Y600732D1*
X2259494Y598809D1*
X2261395Y596885D1*
X2263318Y595957D1*
X2267143D1*
X2264269Y612206D2*
X2258543Y617954D1*
X2251395Y599803D2*
X2249471Y598831D1*
X2246597Y595979D1*
Y616053D1*
X2119016Y875917D2*
X2127616D1*
X2130490Y876890D1*
X2131462Y877841D1*
X2132413Y879742D1*
Y881665D1*
X2131462Y883567D1*
X2130490Y884539D1*
X2127616Y885490D1*
X2119016D1*
Y865394D1*
X2125714Y875917D2*
X2132413Y865394D1*
X2138589Y881643D2*
X2140512Y882616D1*
X2143386Y885468D1*
Y865394D1*
X2160188Y1796229D2*
X2151588D1*
X2148714Y1795256D1*
X2147741Y1794305D1*
X2146790Y1792404D1*
Y1790480D1*
X2147741Y1788579D1*
X2148714Y1787606D1*
X2151588Y1786656D1*
X2160188D1*
X2160187Y1806752D1*
X2153489Y1796229D2*
X2146790Y1806752D1*
X2139642Y1791453D2*
Y1790502D1*
X2138691Y1788579D1*
X2137741Y1787628D1*
X2135817Y1786678D1*
X2131993D1*
X2130091Y1787628D1*
X2129141Y1788579D1*
X2128168Y1790502D1*
Y1792403D1*
X2129141Y1794327D1*
X2131042Y1797179D1*
X2140614Y1806752D1*
X2127217Y1806751D1*
X1013417Y1535186D2*
Y1526586D1*
X1014390Y1523712D1*
X1015341Y1522739D1*
X1017242Y1521789D1*
X1019165D1*
X1021067Y1522739D1*
X1022039Y1523712D1*
X1022990Y1526586D1*
Y1535186D1*
X1002894D1*
X1013417Y1528487D2*
X1002894Y1521789D1*
X1022968Y1513690D2*
Y1503188D1*
X1015319Y1508914D1*
Y1506040D1*
X1014368Y1504139D1*
X1013417Y1503188D1*
X1010543Y1502216D1*
X1008642D1*
X1005768Y1503188D1*
X1003845Y1505090D1*
X1002894Y1507964D1*
Y1510838D1*
X1003845Y1513690D1*
X1004817Y1514640D1*
X1006719Y1515613D1*
X1013417Y1660661D2*
Y1652061D1*
X1014390Y1649187D1*
X1015341Y1648215D1*
X1017242Y1647264D1*
X1019165D1*
X1021067Y1648215D1*
X1022039Y1649187D1*
X1022990Y1652061D1*
Y1660661D1*
X1002894D1*
X1013417Y1653963D2*
X1002894Y1647264D1*
Y1631516D2*
X1022968D1*
X1009593Y1641088D1*
Y1626740D1*
X1013417Y1785186D2*
Y1776586D1*
X1014390Y1773712D1*
X1015341Y1772739D1*
X1017242Y1771789D1*
X1019165D1*
X1021067Y1772739D1*
X1022039Y1773712D1*
X1022990Y1776586D1*
Y1785186D1*
X1002894D1*
X1013417Y1778487D2*
X1002894Y1771789D1*
X1022968Y1754139D2*
Y1763690D1*
X1014368Y1764640D1*
X1015319Y1763690D1*
X1016291Y1760816D1*
Y1757964D1*
X1015319Y1755090D1*
X1013417Y1753166D1*
X1010543Y1752216D1*
X1008642D1*
X1005768Y1753166D1*
X1003845Y1755090D1*
X1002894Y1757964D1*
Y1760816D1*
X1003845Y1763690D1*
X1004817Y1764640D1*
X1006719Y1765613D1*
X1013417Y1909700D2*
Y1901100D1*
X1014390Y1898226D1*
X1015341Y1897253D1*
X1017242Y1896302D1*
X1019165D1*
X1021067Y1897253D1*
X1022039Y1898226D1*
X1022990Y1901100D1*
Y1909700D1*
X1002894D1*
X1013417Y1903001D2*
X1002894Y1896302D1*
X1020116Y1878653D2*
X1022017Y1879603D1*
X1022968Y1882477D1*
Y1884379D1*
X1022017Y1887253D1*
X1019143Y1889176D1*
X1014368Y1890127D1*
X1009593D1*
X1005768Y1889176D1*
X1003845Y1887253D1*
X1002894Y1884379D1*
Y1883428D1*
X1003845Y1880576D1*
X1005768Y1878653D1*
X1008642Y1877702D1*
X1009593D1*
X1012467Y1878653D1*
X1014368Y1880576D1*
X1015319Y1883428D1*
Y1884379D1*
X1014368Y1887253D1*
X1012467Y1889176D1*
X1009593Y1890127D1*
X2489716Y875917D2*
X2498316D1*
X2501190Y876890D1*
X2502162Y877841D1*
X2503113Y879742D1*
Y881665D1*
X2502162Y883567D1*
X2501190Y884539D1*
X2498316Y885490D1*
X2489716D1*
Y865394D1*
X2496414Y875917D2*
X2503113Y865394D1*
X2513113D2*
X2522686Y885468D1*
X2509289D1*
X2614727Y875917D2*
X2623327D1*
X2626201Y876890D1*
X2627173Y877841D1*
X2628124Y879742D1*
Y881665D1*
X2627173Y883567D1*
X2626201Y884539D1*
X2623327Y885490D1*
X2614727D1*
Y865394D1*
X2621425Y875917D2*
X2628124Y865394D1*
X2639075Y885468D2*
X2636223Y884517D1*
X2635250Y882616D1*
Y880693D1*
X2636223Y878791D1*
X2638124Y877819D1*
X2641949Y876868D1*
X2644823Y875917D1*
X2646724Y873994D1*
X2647675Y872093D1*
Y869219D1*
X2646724Y867317D1*
X2645774Y866345D1*
X2642900Y865394D1*
X2639075D1*
X2636223Y866345D1*
X2635250Y867317D1*
X2634300Y869219D1*
Y872093D1*
X2635250Y873994D1*
X2637174Y875917D1*
X2640026Y876868D1*
X2643850Y877819D1*
X2645774Y878791D1*
X2646724Y880693D1*
Y882616D1*
X2645774Y884517D1*
X2642900Y885468D1*
X2639075D1*
X2609711Y1796228D2*
X2601111D1*
X2598237Y1795256D1*
X2597264Y1794305D1*
X2596313Y1792404D1*
Y1790480D1*
X2597264Y1788579D1*
X2598237Y1787606D1*
X2601111Y1786656D1*
X2609711D1*
Y1806752D1*
X2603012Y1796228D2*
X2596313Y1806752D1*
X2577691Y1793354D2*
X2578664Y1796228D1*
X2580565Y1798152D1*
X2583439Y1799102D1*
X2584390D1*
X2587264Y1798152D1*
X2589165Y1796228D1*
X2590138Y1793354D1*
Y1792404D1*
X2589165Y1789530D1*
X2587264Y1787628D1*
X2584390Y1786678D1*
X2583439D1*
X2580565Y1787628D1*
X2578664Y1789530D1*
X2577691Y1793354D1*
Y1798152D1*
X2578664Y1802927D1*
X2580565Y1805801D1*
X2583439Y1806752D1*
X2585340D1*
X2588214Y1805801D1*
X2589165Y1803878D1*
X871725Y778672D2*
X880325D1*
X883199Y779645D1*
X884171Y780596D1*
X885122Y782497D1*
Y784421D1*
X884171Y786322D1*
X883198Y787295D1*
X880324Y788245D1*
X871724D1*
X871725Y768149D1*
X878423Y778672D2*
X885123Y768149D1*
X891297Y784399D2*
X893221Y785372D1*
X896095Y788224D1*
X896096Y768150D1*
X908018Y788225D2*
X905144Y787274D1*
X903221Y784400D1*
X902271Y779624D1*
Y776750D1*
X903222Y771975D1*
X905146Y769101D1*
X908020Y768151D1*
X909921D1*
X912795Y769102D1*
X914696Y771976D1*
X915668Y776751D1*
Y779625D1*
X914695Y784400D1*
X912794Y787274D1*
X909920Y788225D1*
X908018D1*
X914695Y784400D2*
X903222Y771975D1*
X1388526Y778672D2*
X1397126Y778673D1*
X1400000Y779646D1*
X1400972Y780596D1*
X1401923Y782498D1*
Y784421D1*
X1400972Y786322D1*
X1399999Y787295D1*
X1397125Y788246D1*
X1388525Y788245D1*
X1388526Y768149D1*
X1395224Y778673D2*
X1401924Y768150D1*
X1408099Y784399D2*
X1410022Y785372D1*
X1412896Y788224D1*
X1412897Y768150D1*
X1419072Y784400D2*
X1420995Y785373D1*
X1423869Y788225D1*
X1423870Y768151D1*
X1909225Y778672D2*
X1917825D1*
X1920699Y779645D1*
X1921671Y780596D1*
X1922622Y782497D1*
Y784421D1*
X1921671Y786322D1*
X1920698Y787295D1*
X1917824Y788245D1*
X1909224D1*
X1909225Y768149D1*
X1915923Y778672D2*
X1922623Y768149D1*
X1928797Y784399D2*
X1930721Y785372D1*
X1933595Y788224D1*
X1933596Y768150D1*
X1940743Y783449D2*
Y784400D1*
X1941694Y786323D1*
X1942644Y787274D1*
X1944568Y788225D1*
X1948392D1*
X1950294Y787274D1*
X1951244Y786324D1*
X1952217Y784400D1*
Y782499D1*
X1951245Y780576D1*
X1949344Y777724D1*
X1939772Y768150D1*
X1953169Y768151D1*
X2359229Y875917D2*
X2367829D1*
X2370703Y876890D1*
X2371676Y877841D1*
X2372626Y879742D1*
Y881665D1*
X2371676Y883567D1*
X2370703Y884539D1*
X2367829Y885490D1*
X2359229D1*
Y865394D1*
X2365928Y875917D2*
X2372626Y865394D1*
X2378802Y881643D2*
X2380725Y882616D1*
X2383599Y885468D1*
Y865394D1*
X2391699Y885468D2*
X2402200D1*
X2396474Y877819D1*
X2399348D1*
X2401249Y876868D1*
X2402200Y875917D1*
X2403173Y873043D1*
Y871142D1*
X2402200Y868268D1*
X2400299Y866345D1*
X2397424Y865394D1*
X2394550D1*
X2391699Y866345D1*
X2390748Y867317D1*
X2389775Y869219D1*
X646252Y778673D2*
X654852D1*
X657726Y779646D1*
X658698Y780596D1*
X659649Y782498D1*
Y784421D1*
X658698Y786322D1*
X657725Y787295D1*
X654851Y788246D1*
X646251Y788245D1*
X646252Y768149D1*
X652950Y778673D2*
X659649Y768150D1*
X665824Y784399D2*
X667748Y785372D1*
X670622Y788224D1*
Y768150D1*
X686371D2*
X686370Y788224D1*
X676798Y774849D1*
X691146D1*
X1159227Y778673D2*
X1167827D1*
X1170701Y779646D1*
X1171674Y780596D1*
X1172624Y782498D1*
Y784421D1*
X1171673Y786322D1*
X1170701Y787295D1*
X1167827Y788246D1*
X1159227Y788245D1*
Y768149D1*
X1165926Y778673D2*
X1172625Y768150D1*
X1178800Y784399D2*
X1180723Y785372D1*
X1183597Y788224D1*
X1183598Y768150D1*
X1201247Y788224D2*
X1191696D1*
X1190746Y779624D1*
X1191696Y780575D1*
X1194570Y781548D1*
X1197422D1*
X1200296Y780575D1*
X1202220Y778674D1*
X1203170Y775800D1*
X1203171Y773899D1*
X1202220Y771025D1*
X1200297Y769101D1*
X1197423Y768150D1*
X1194571D1*
X1191697Y769101D1*
X1190746Y770074D1*
X1189773Y771975D1*
X1684713Y778673D2*
X1693313D1*
X1696187Y779646D1*
X1697160Y780596D1*
X1698111Y782498D1*
X1698110Y784421D1*
X1697160Y786322D1*
X1696187Y787295D1*
X1693313Y788246D1*
X1684713Y788245D1*
X1684714Y768149D1*
X1691412Y778673D2*
X1698111Y768150D1*
X1704286Y784399D2*
X1706210Y785372D1*
X1709083Y788224D1*
X1709084Y768150D1*
X1726733Y785373D2*
X1725782Y787274D1*
X1722908Y788224D1*
X1721007D1*
X1718133Y787274D1*
X1716210Y784399D1*
X1715259Y779624D1*
X1715260Y774849D1*
X1716210Y771024D1*
X1718134Y769101D1*
X1721008Y768150D1*
X1721958D1*
X1724810Y769101D1*
X1726734Y771025D1*
X1727684Y773899D1*
Y774849D1*
X1726733Y777723D1*
X1724810Y779624D1*
X1721958Y780575D1*
X1721007D1*
X1718133Y779624D1*
X1716210Y777723D1*
X1715260Y774849D1*
X3189033Y1337087D2*
X3174685D1*
X3171811Y1336136D1*
X3169910Y1334213D1*
X3168937Y1331339D1*
Y1329437D1*
X3169910Y1326563D1*
X3171811Y1324640D1*
X3174685Y1323689D1*
X3189033D1*
X3185187Y1317514D2*
X3186159Y1315590D1*
X3189011Y1312716D1*
X3168937D1*
X1534801Y1772686D2*
X1520453D1*
X1517579Y1771735D1*
X1515678Y1769812D1*
X1514705Y1766938D1*
Y1765037D1*
X1515678Y1762163D1*
X1517579Y1760239D1*
X1520453Y1759289D1*
X1534801D1*
X1530004Y1752140D2*
X1530954D1*
X1532878Y1751190D1*
X1533828Y1750239D1*
X1534779Y1748316D1*
Y1744491D1*
X1533828Y1742590D1*
X1532878Y1741639D1*
X1530954Y1740666D1*
X1529053D1*
X1527130Y1741639D1*
X1524278Y1743540D1*
X1514705Y1753113D1*
Y1739716D1*
X2914228Y767572D2*
X2899880Y767571D1*
X2897006Y766621D1*
X2895105Y764697D1*
X2894133Y761823D1*
Y759922D1*
X2895105Y757048D1*
X2897007Y755125D1*
X2899881Y754174D1*
X2914229D1*
X2914207Y746075D2*
Y735574D1*
X2906558Y741300D1*
Y738426D1*
X2905607Y736524D1*
X2904657Y735574D1*
X2901783Y734601D1*
X2899881D1*
X2897007Y735574D1*
X2895084Y737475D1*
X2894133Y740349D1*
Y743223D1*
X2895084Y746075D1*
X2896056Y747025D1*
X2897958Y747998D1*
M02*
